<svg width="300" height="161" viewBox="0 0 300 161" fill="none" xmlns="http://www.w3.org/2000/svg">
<path d="M167.064 66.7005C167.076 66.8467 167.082 66.9956 167.082 67.1456V92.2976C167.082 95.0023 164.902 97.1817 162.196 97.1817L162.002 97.1805L162.003 107.13C162.003 109.268 160.239 111 158.063 111C155.888 111 154.124 109.268 154.124 107.13L154.123 97.1805H144.227L144.229 107.13C144.229 109.268 142.465 111 140.289 111C138.113 111 136.349 109.268 136.349 107.13L136.349 97.1805L136.156 97.1817C133.534 97.1817 131.407 95.1367 131.276 92.5496L131.27 92.2976V67.1456C131.27 66.9956 131.281 66.8473 131.294 66.7005H167.064ZM124.94 68.9389C127.116 68.9389 128.879 70.6715 128.879 72.8088V89.4098C128.879 91.5471 127.116 93.2797 124.94 93.2797C122.764 93.2797 121 91.5471 121 89.4101V72.8091C121 70.6718 122.764 68.9389 124.94 68.9389ZM173.413 68.9389C175.588 68.9389 177.352 70.6715 177.352 72.8088V89.4098C177.352 91.5471 175.588 93.2797 173.413 93.2797C171.237 93.2797 169.473 91.5471 169.473 89.4101V72.8091C169.473 70.6718 171.237 68.9389 173.413 68.9389ZM165.78 49.0547C165.979 49.1672 166.047 49.4165 165.932 49.6115L162.595 55.288C165.259 57.9079 166.889 61.3158 166.942 65.0483H131.409C131.462 61.3161 133.092 57.9086 135.756 55.289L132.42 49.6115C132.306 49.4165 132.374 49.1672 132.572 49.0547C132.771 48.9421 133.025 49.0089 133.139 49.2039L136.375 54.7111C139.176 52.2257 142.961 50.5545 147.196 50.1534H151.156C155.391 50.5547 159.176 52.226 161.977 54.7114L165.213 49.2039C165.328 49.0089 165.582 48.9421 165.78 49.0547ZM141.839 56.1638C140.714 56.1668 139.804 57.0446 139.807 58.1248C139.81 59.2155 140.725 60.0884 141.851 60.0857C142.977 60.0827 143.887 59.2047 143.883 58.1248C143.88 57.0334 142.965 56.1608 141.839 56.1638ZM157.054 56.1638C155.929 56.1668 155.019 57.0446 155.022 58.1248C155.025 59.2155 155.94 60.0884 157.066 60.0857C158.192 60.0827 159.102 59.2047 159.098 58.1248C159.095 57.0334 158.18 56.1608 157.054 56.1638Z" fill="#47237E"/>
</svg>
