<svg width="300" height="161" viewBox="0 0 300 161" fill="none" xmlns="http://www.w3.org/2000/svg">
<path d="M114 81.5329L114.062 81.649C118.682 90.2358 129.001 94.5304 142.849 91.1997L143.91 90.9444L144.569 90.7857C150.439 89.0629 156.471 85.7381 160.588 82.6771L161.022 82.3453L161.393 82.7601C170.75 93.3889 170.586 104.161 163.475 111.476L163.178 111.771L162.629 112.044C162.469 112.12 162.287 112.204 162.084 112.295C161.055 112.759 159.879 113.223 158.578 113.657C151.104 116.151 143.268 116.553 135.978 113.559C135.424 113.332 134.875 113.084 134.332 112.818C121.901 107.482 114.248 94.0843 114.008 82.1323L114 81.5329ZM169.374 52.0976L169.831 52.1687L169.646 52.0448C171.475 53.2199 174.116 55.4073 176.768 58.551C181.094 63.6785 183.865 69.6521 184.319 76.4306L184.401 77.199C185.669 90.7661 177.881 103.916 167.66 109.719L167.352 109.888L167.378 109.847C172.388 101.534 171.396 92.9308 165.587 84.8041L165.034 84.0532C160.319 77.8204 152.861 72.2383 146.191 69.2867L145.484 68.9838L145.604 68.6035C149.457 56.7248 157.316 50.3451 169.374 52.0976ZM164.958 48.8483L165.422 49.1071L165.191 49.0981C155.515 48.893 146.719 55.6825 142.704 69.258L142.394 70.3066L142.221 70.8292C140.685 76.7046 140.603 82.8392 141.124 88.0555L141.214 88.8605L140.821 88.9496C128.59 91.5454 119.145 87.9485 114.652 76.6806L114.484 76.2456L114.523 75.8067L114.626 74.8941C114.668 74.5703 114.717 74.2273 114.776 73.8666C115.11 71.7972 115.652 69.5866 116.446 67.3303C118.708 60.9075 122.522 55.4157 128.253 51.5737C139.134 43.4428 154.519 43.2401 164.958 48.8483Z" fill="#47237E"/>
</svg>
