<svg width="300" height="161" viewBox="0 0 300 161" fill="none" xmlns="http://www.w3.org/2000/svg">
<path d="M129.302 90.9166L120.419 94.7519L128.645 98.2881L138.185 94.7519L129.302 90.9166ZM115.947 95.7107L115.649 112.97L128.645 118.723V100.804L115.947 95.7107ZM142.656 95.7107L130.912 100.206V117.104L142.656 112.31V95.7107ZM156.667 42.0164L147.724 45.8518L156.011 49.3879L165.55 45.8518L156.667 42.0164ZM144.267 47.1116V64.3705L155.355 67.6075L155.714 51.9057L144.267 47.1116ZM169.068 48.0704L158.575 52.5654V69.5252L169.068 64.7311V48.0704ZM114.665 66.3073L105.782 70.1426L114.009 73.6789L123.548 70.1426L114.665 66.3073ZM101.31 71.1015L101.013 88.3604L114.009 94.1134V76.1948L101.31 71.1015ZM128.02 71.1015L116.275 75.5964V92.4948L128.02 87.7007V71.1015ZM143.282 65.6706L134.399 69.5059L142.626 73.0421L152.165 69.5059L143.282 65.6706ZM129.927 70.4648L129.63 87.7237L142.626 93.4767V75.56L129.927 70.4648ZM156.637 70.4648L144.892 74.9598V91.8582L156.637 87.0641V70.4648ZM184.619 42.0164L175.736 45.8517L183.963 49.3878L193.502 45.8517L184.619 42.0164ZM171.264 46.8105L170.967 64.0694L183.963 69.8223V51.9057L171.264 46.8105ZM197.974 46.8105L186.229 51.3054V68.2038L197.974 63.4097V46.8105Z" fill="#47237E"/>
</svg>
