<svg width="300" height="161" viewBox="0 0 300 161" fill="none" xmlns="http://www.w3.org/2000/svg">
<g clip-path="url(#clip0)">
<path d="M146.864 109.545L166.675 106.048L166.859 106.005L156.672 93.8924C153.257 89.8519 149.861 85.7958 146.484 81.7241C146.484 81.6644 157.004 52.7129 157.064 52.6106C157.081 52.5764 164.243 64.9281 174.417 82.5515L191.872 112.791L192.005 113.021L159.625 113.017L127.245 113.013L146.864 109.55V109.545ZM108.006 105.86C108.006 105.843 112.807 97.5135 118.675 87.3497L129.345 68.8691L141.777 58.4409C148.614 52.7087 154.226 48.0085 154.252 48C154.206 48.1754 154.139 48.3445 154.051 48.5033L140.548 77.4419L127.288 105.86L117.647 105.873C112.346 105.882 108.006 105.873 108.006 105.856V105.86Z" fill="#47237E"/>
</g>
<defs>
<clipPath id="clip0">
<rect width="84" height="65" fill="white" transform="translate(108 48)"/>
</clipPath>
</defs>
</svg>
