<?xml version="1.0" encoding="utf-8"?>
<!-- Generator: Adobe Illustrator 25.4.1, SVG Export Plug-In . SVG Version: 6.00 Build 0)  -->
<svg version="1.1" id="Capa_1" xmlns="http://www.w3.org/2000/svg" xmlns:xlink="http://www.w3.org/1999/xlink" x="0px" y="0px"
	 viewBox="0 0 512 512" style="enable-background:new 0 0 512 512;" xml:space="preserve">
<style type="text/css">
	.st0{fill:#CEE1F2;}
	.st1{fill:#43B7C5;}
	.st2{fill:#47237E;}
</style>
<g>
	<path class="st0" d="M80,452V260c0-44.2,35.8-80,80-80h-60c-44.2,0-80,35.8-80,80v192c0,22.1,17.9,40,40,40c12,0,22.7-5.3,30-13.6
		C83.8,471.4,80,462.1,80,452z"/>
	<g>
		<circle class="st1" cx="100" cy="296" r="20"/>
		<circle class="st1" cx="176" cy="296" r="20"/>
		<circle class="st1" cx="252" cy="296" r="20"/>
	</g>
	<path class="st2" d="M60,512c-25.3,0-47-15.7-55.8-37.9c-2.6-3.4-4.2-7.7-4.2-12.3V260c0-55.1,44.9-100,100-100h152
		c55.1,0,100,44.9,100,100v72c0,55.1-44.9,100-100,100H150l-42,56C96.7,503,78.8,512,60,512z M40,452c0,11,9,20,20,20
		c6.4,0,12.2-2.9,16-8l48-64c3.8-5,9.7-8,16-8h112c33.1,0,60-26.9,60-60v-72c0-33.1-26.9-60-60-60H100c-33.1,0-60,26.9-60,60V452z"
		/>
	<path class="st2" d="M404,336l-8-10.6c-15.9-21.2,16.1-45.2,32-24l8,10.6c11.5,15.3,36,7.3,36-12V100c0-33.1-26.9-60-60-60H252
		c-33.1,0-60,26.9-60,60c0,11-9,20-20,20s-20-9-20-20C152,44.9,196.9,0,252,0h160c55.1,0,100,44.9,100,100v209.8
		c0,4.6-1.6,8.9-4.2,12.3C490.4,365.7,432.1,373.4,404,336z"/>
</g>
</svg>
