<?xml version="1.0" encoding="utf-8"?>
<!-- Generator: Adobe Illustrator 25.4.1, SVG Export Plug-In . SVG Version: 6.00 Build 0)  -->
<svg version="1.1" id="Capa_1" xmlns="http://www.w3.org/2000/svg" xmlns:xlink="http://www.w3.org/1999/xlink" x="0px" y="0px"
	 viewBox="0 0 512 512" style="enable-background:new 0 0 512 512;" xml:space="preserve">
<style type="text/css">
	.st0{fill:#CEE1F2;}
	.st1{fill:#47237E;}
	.st2{fill:#43B7C5;}
</style>
<g id="Layer_1_">
	<path class="st0" d="M114.6,173.7c166.7,85.8,179.6,92.5,195,100.7l-16.5,8.5c-22.9,12-50.8,12.2-74.1,0L41.4,191.4
		c-28.5-15-28.5-55.9,0-70.9L219,29.1c22.9-12,50.8-12.2,74.1,0l16.6,8.6c-180.5,93.1-194.2,100.2-195,100.6c0,0,0,0,0,0
		C100.4,145.9,100.5,166.2,114.6,173.7L114.6,173.7z"/>
	<path class="st1" d="M209.7,300.6L32.3,209.2c0,0-0.1-0.1-0.1-0.1c-42.7-22.5-42.8-83.8,0-106.3c0,0,0.1-0.1,0.1-0.1l177.4-91.4
		c28.7-15.1,63.5-15.3,92.7,0l177.4,91.4c0,0,0.1,0.1,0.1,0.1c42.7,22.5,42.8,83.8,0,106.3c0,0-0.1,0.1-0.1,0.1l-177.4,91.4
		C273.7,315.7,238.9,315.9,209.7,300.6L209.7,300.6z M50.7,173.7L228,265.1c0.1,0,0.1,0.1,0.1,0.1c17.4,9.1,38.2,9.1,55.6,0
		c0,0,0.1-0.1,0.1-0.1l177.4-91.4c14.2-7.5,14.2-27.9,0-35.4L284,46.9c0,0-0.1-0.1-0.1-0.1c-17.4-9.1-38.2-9.1-55.6,0
		c0,0-0.1,0.1-0.1,0.1L50.7,138.3C36.5,145.8,36.5,166.2,50.7,173.7L50.7,173.7z"/>
	<path class="st1" d="M209.6,500.6c0,0-0.1-0.1-0.1-0.1L10.5,393.8c-9.7-5.2-13.4-17.3-8.2-27.1s17.3-13.4,27.1-8.2l198.8,106.6
		c17.3,9.1,38.1,9.1,55.5,0l198.8-106.6c9.7-5.2,21.9-1.6,27.1,8.2s1.6,21.9-8.2,27.1L302.6,500.5c0,0-0.1,0.1-0.1,0.1
		C273.7,515.7,238.8,515.9,209.6,500.6L209.6,500.6z"/>
	<path class="st2" d="M209.6,400.6c0,0-0.1-0.1-0.1-0.1L10.5,293.8c-9.7-5.2-13.4-17.3-8.2-27.1c5.2-9.7,17.3-13.4,27.1-8.2
		l198.8,106.6c17.3,9.1,38.1,9.1,55.5,0l198.8-106.6c9.7-5.2,21.9-1.6,27.1,8.2c5.2,9.7,1.6,21.9-8.2,27.1L302.6,400.5
		c0,0-0.1,0.1-0.1,0.1C273.7,415.7,238.8,415.9,209.6,400.6L209.6,400.6z"/>
</g>
</svg>
