<svg width="300" height="161" viewBox="0 0 300 161" fill="none" xmlns="http://www.w3.org/2000/svg">
<path d="M164.185 59.6441C160.741 57.4817 157.492 56.6301 154.244 54.4683C152.228 53.0925 149.435 49.8167 147.095 47C146.64 51.5204 145.276 53.3548 143.717 54.6645C140.403 57.2855 138.323 58.071 135.464 59.6435C133.06 60.8882 120 68.7495 120 85.6511C120 102.554 134.1 115 149.759 115C165.421 115 179 103.535 179 86.1753C179 68.8151 166.264 60.9538 164.185 59.6441ZM164.56 108.835C164.235 109.163 161.246 111.26 157.738 111.587C154.228 111.914 149.486 112.112 146.626 109.491C146.171 109.032 146.302 108.377 146.626 108.115C146.951 107.853 147.211 107.656 147.601 107.656C147.991 107.656 147.926 107.656 148.121 107.787C149.42 108.835 151.37 109.687 155.528 109.687C159.687 109.687 162.611 108.507 163.91 107.525C164.496 107.066 164.755 107.46 164.82 107.721C164.886 107.984 165.016 108.377 164.56 108.835ZM153.189 102.874C153.904 102.219 155.074 101.171 156.179 100.712C157.283 100.254 157.868 100.319 158.907 100.319C159.947 100.319 161.051 100.384 161.832 100.909C162.612 101.433 163.067 102.612 163.326 103.267C163.586 103.922 163.326 104.315 162.806 104.577C162.352 104.839 162.286 104.708 161.832 103.857C161.377 103.005 160.987 102.154 158.713 102.154C156.438 102.154 155.723 102.94 154.619 103.857C153.514 104.775 153.125 105.102 152.735 104.577C152.345 104.053 152.474 103.529 153.189 102.874ZM170.408 103.398C168.07 103.202 163.39 95.8644 160.401 95.7338C156.633 95.6026 148.445 103.66 142.012 103.66C138.114 103.66 136.945 103.071 135.644 102.219C133.695 100.843 132.721 98.7467 132.786 95.8644C132.851 90.7542 137.594 85.9719 143.572 85.9063C151.174 85.8418 156.437 93.5058 160.272 93.4402C163.52 93.3752 169.758 86.9553 172.812 86.9553C176.061 86.9553 176.972 90.3617 176.972 92.3924C176.972 94.423 176.322 98.0918 174.762 100.384C173.202 102.677 172.228 103.529 170.408 103.398Z" fill="#47237E"/>
</svg>
