<svg width="300" height="161" viewBox="0 0 300 161" fill="none" xmlns="http://www.w3.org/2000/svg">
<path d="M172.96 99.4617L173.553 99.7208L173.686 99.6237V109.414L173.441 109.755L160.994 117H160.092L160.088 103.427L172.96 99.4617ZM126.07 100.094L138.321 103.709L139.665 103.707L139.663 117H138.761L126.07 110.663V100.094ZM157.814 103.707V117H141.942V103.707H157.814ZM181.364 94.1761L181.364 100.851L176.095 109.734V98.629L176.139 98.6159L178.305 96.3456L181.364 94.1761ZM123.802 50.8438V61.6713L138.647 57.2917H158.842L173.055 61.6713L173.268 61.6025L180.26 66.574L180.488 67.0174L178.28 67.2576V69.0333L173.055 66.2714L158.842 62.9964H138.647L123.802 66.2714V77.0731L138.647 76.5079H158.842L173.055 77.0731L173.157 77.0228L180.008 77.6581L180.488 77.7639L178.28 77.7955V80.9539L180.488 80.9854L180.02 81.2131L173.379 81.7817L173.055 81.6338L158.842 82.2109H138.647V82.197L123.802 81.6406V92.4513L138.647 95.7251L158.842 95.7211L173.097 92.4651L173.268 92.1099L177.991 89.5784L178.28 89.6934V91.4897L180.488 91.7319L180.186 92.2199L173.286 97.1182L173.097 97.0356L158.842 101.428H138.647L123.802 97.0484V107.875L117 99.2144V91.653L117.093 91.722L119.208 91.4897V89.6566L117 88.4758V80.9479L117.353 80.9815L119.208 80.9539V77.7955L117.058 77.7639L117 77.7698V70.2449L119.208 69.0698V67.2576L117.058 67.0244L117 67.0658V59.5031L123.802 50.8438ZM126.07 84.0086L136.378 84.3941L136.379 84.4921L139.668 84.4899V93.4393L138.881 93.4415L126.07 90.6151V84.0086ZM157.814 84.4899V93.437L141.942 93.4393V84.4899H157.814ZM172.607 83.9356L172.98 84.1054L173.686 84.0428V89.2988L171.55 90.4461L171.53 90.4827L160.088 93.0948L160.086 84.4397L172.607 83.9356ZM181.364 83.0915V89.5292L180.547 89.4425L180.548 88.1412L177.849 87.0696L176.094 88.0076V83.8375L180.629 83.4504L181.364 83.0915ZM176.094 70.4557L180.548 72.8087L180.547 70.4693L181.364 71.1L181.364 75.6204L180.494 75.4297L180.217 75.3865L176.094 75.0045V70.4557ZM160.084 65.6194L172.255 68.4276L173.686 69.1827V74.7809L172.729 74.6923L172.57 74.7695L160.086 74.2722L160.084 65.6194ZM139.672 65.2749L139.67 74.2266L138.647 74.2267L126.07 74.7033V68.106L138.883 65.2772L139.672 65.2749ZM157.814 65.2749V74.2266H141.942V65.2749H157.814ZM176.095 51.237L181.364 60.1209L181.364 64.5655L176.094 60.8174L176.095 51.237ZM160.994 44L173.441 51.2392L173.686 51.5819V59.1064L173.653 59.0824L173.038 59.2798L160.084 55.2876L160.081 44H160.994ZM139.674 44L139.672 55.0093L138.321 55.0105L126.07 58.6228V50.3282L138.761 44H139.674ZM157.814 44V55.0093H141.942V44H157.814Z" fill="#47237E"/>
</svg>
