<svg width="300" height="161" viewBox="0 0 300 161" fill="none" xmlns="http://www.w3.org/2000/svg">
<path d="M165.345 64.6214C166.221 63.7476 167.48 64.2518 167.679 65.4705L174.031 104.42L151.789 116.77C150.391 117.546 148.689 117.545 147.291 116.768L125.251 104.504L165.345 64.6214ZM150.792 58.1754L150.911 58.3723L157.087 70.0811L150.625 77.0763L125.859 101.643L125.185 101.915L125 102.101L144.761 64.5043L148.32 58.2572C148.864 57.2139 150.15 57.2496 150.792 58.1754ZM133.455 45.3218C133.689 43.8411 135.485 43.5039 136.192 44.8267L144.701 60.8476L125.551 97.0286L125.242 97.6293L133.455 45.3218Z" fill="#47237E"/>
</svg>
