<svg width="300" height="161" viewBox="0 0 300 161" fill="none" xmlns="http://www.w3.org/2000/svg">
<path d="M125.791 58.8963C137.497 45.5594 157.742 44.291 171.005 56.0624L170.984 56.2299L171.128 56.0866C175.611 60.0842 178.884 65.2594 180.592 71.0221L180.806 71.7771C189.26 77.5279 192.972 88.1726 189.948 97.9774C186.917 107.779 177.861 114.432 167.654 114.352H149.848L149.748 114.252L132.018 114.252C127.193 114.272 122.49 112.771 118.568 109.966L118.038 109.576L118.062 109.473L118.041 109.496C110.353 103.551 107.18 93.4303 110.037 84.1519L110.212 83.6071C111.898 78.5705 115.185 74.4064 119.39 71.6117L119.192 71.6669L118.89 71.7771C120.176 67.0077 122.537 62.6012 125.791 58.8963ZM161.076 66.2716C153.756 60.3133 143.085 61.1289 136.744 68.1309C136.681 68.1182 136.609 68.1412 136.532 68.1882L137.029 68.2888C142.328 69.4518 147.112 72.4654 150.474 76.8817L140.146 87.2671C139.253 85.2833 137.672 83.6935 135.699 82.795C131.218 80.7593 125.946 82.7604 123.922 87.2671C121.897 91.7738 123.887 97.0754 128.369 99.111C129.508 99.6494 130.756 99.9197 132.018 99.9197H149.824L149.823 100.039L149.848 100.017H167.654C172.568 100.017 176.555 96.0109 176.555 91.0653C176.555 86.1232 172.572 82.1141 167.654 82.1141V80.3273C167.757 74.8426 165.351 69.6136 161.127 66.1437L161.278 66.2714L161.076 66.2716Z" fill="#47237E"/>
</svg>
