<svg width="300" height="161" viewBox="0 0 300 161" fill="none" xmlns="http://www.w3.org/2000/svg">
<path d="M171.004 51.8161C176.689 46.5986 185.556 46.7494 191.054 52.1571C196.414 57.4573 202.498 72.056 179.348 89.0828C172.664 94.0007 170.321 103.816 170.174 112.36C170.162 113.094 169.554 113.683 168.808 113.683H162.639C161.95 113.683 161.368 113.178 161.284 112.505C160.674 107.904 156.687 104.462 151.968 104.462C147.249 104.462 143.262 107.904 142.652 112.505C142.567 113.178 141.986 113.683 141.296 113.683H135.054C134.363 113.683 133.778 113.179 133.688 112.505C133.097 107.892 129.107 104.432 124.378 104.432C119.648 104.432 115.658 107.892 115.067 112.505C114.982 113.178 114.401 113.683 113.711 113.683H107.301C106.646 113.676 106.085 113.219 105.956 112.588C102.436 94.2487 108.993 79.7945 119.796 72.2937L125.418 81.8505C126.78 84.1354 129.271 85.5392 131.965 85.539C133.246 85.5441 134.507 85.22 135.622 84.5988L138.259 83.1523H138.343C141.446 81.2797 144.375 79.1432 147.097 76.7673C147.392 76.5029 147.556 76.1264 147.549 75.7341C147.547 75.3305 147.357 74.9501 147.034 74.701L146.863 74.5764C146.328 74.2441 145.624 74.2857 145.132 74.701C142.547 76.9627 139.77 79.0021 136.83 80.7967L134.192 82.2535L134.308 82.1708L134.161 82.2535C131.912 83.4857 129.074 82.7179 127.782 80.5281L121.834 70.4133C121.182 69.2879 121.039 67.9457 121.438 66.7114C121.837 65.4771 122.743 64.4631 123.936 63.9146C158.635 47.6834 173.925 79.2366 185.38 67.975C187.754 65.6507 188.465 62.1464 187.18 59.1043C185.894 56.0622 182.866 54.085 179.516 54.0994C177.73 54.0942 175.992 54.6639 174.566 55.7215C174.019 56.1247 173.254 56.0719 172.769 55.5976L170.972 53.7688C170.712 53.5063 170.565 53.1544 170.563 52.7873C170.572 52.4187 170.731 52.0692 171.004 51.8161ZM168.332 74.6051C167.795 73.4307 166.495 72.7857 165.215 73.0582C163.935 73.3307 163.023 74.4464 163.028 75.7341L167.442 77.9141C168.498 77.1635 168.87 75.7796 168.332 74.6051Z" fill="#47237E"/>
</svg>
