<svg width="300" height="161" viewBox="0 0 300 161" fill="none" xmlns="http://www.w3.org/2000/svg">
<g clip-path="url(#clip0)">
<path d="M149.998 48.0001C155.104 47.9874 160.137 49.2106 164.668 51.5654L165.264 51.8745L164.742 52.3098C163.455 53.3374 162.441 54.6666 161.79 56.1797L161.612 56.615L161.203 56.4191C149.814 51.0115 136.189 54.4967 128.795 64.7084C121.402 74.9202 122.344 88.9527 131.037 98.0841C139.729 107.216 153.698 108.847 164.262 101.966C174.825 95.0836 178.976 81.6462 174.136 70.0052L173.962 69.5699L174.397 69.4132C175.94 68.837 177.317 67.8891 178.406 66.6533L178.842 66.1484L179.12 66.7578L179.116 66.7186C185.009 79.637 181.685 94.8939 170.951 104.189C160.218 113.485 144.643 114.596 132.698 106.918C120.754 99.2395 115.298 84.6088 119.299 70.9848C123.299 57.3608 135.799 48.0022 149.998 48.0001ZM150.002 65.4301C158.052 65.4397 164.576 71.9631 164.585 80.013C164.585 88.067 158.056 94.596 150.002 94.596C141.948 94.596 135.419 88.067 135.419 80.013C135.419 71.9591 141.948 65.4301 150.002 65.4301ZM170.941 53.4372C174.609 53.4372 177.584 56.4114 177.584 60.0801C177.584 63.7489 174.609 66.723 170.941 66.723C167.272 66.723 164.298 63.7489 164.298 60.0801C164.298 56.4114 167.272 53.4372 170.941 53.4372Z" fill="#47237E"/>
</g>
<defs>
<clipPath id="clip0">
<rect width="64" height="64" fill="white" transform="translate(118 48)"/>
</clipPath>
</defs>
</svg>
