<svg width="300" height="161" viewBox="0 0 300 161" fill="none" xmlns="http://www.w3.org/2000/svg">
<path d="M167.429 82.0012C167.519 91.6865 175.907 94.9095 176 94.9506C175.929 95.1777 174.66 99.5435 171.581 104.053C168.919 107.952 166.156 111.836 161.804 111.917C157.528 111.996 156.153 109.376 151.264 109.376C146.377 109.376 144.849 111.836 140.802 111.996C136.601 112.155 133.402 107.78 130.718 103.895C125.234 95.9496 121.043 81.4425 126.671 71.65C129.466 66.7869 134.462 63.7075 139.885 63.6285C144.01 63.5497 147.903 66.4096 150.425 66.4096C152.945 66.4096 157.676 62.9703 162.65 63.4754C164.732 63.5622 170.577 64.3183 174.33 69.8238C174.028 70.0117 167.356 73.904 167.429 82.0012ZM159.392 58.2186C161.622 55.5132 163.123 51.7472 162.714 48C159.499 48.1295 155.612 50.1467 153.306 52.8506C151.24 55.2449 149.43 59.0773 149.919 62.7503C153.502 63.0281 157.162 60.9256 159.392 58.2186Z" fill="#47237E"/>
</svg>
