<?xml version="1.0" encoding="utf-8"?>
<!-- Generator: Adobe Illustrator 25.4.1, SVG Export Plug-In . SVG Version: 6.00 Build 0)  -->
<svg version="1.1" id="Capa_1" xmlns="http://www.w3.org/2000/svg" xmlns:xlink="http://www.w3.org/1999/xlink" x="0px" y="0px"
	 viewBox="0 0 512 512" style="enable-background:new 0 0 512 512;" xml:space="preserve">
<style type="text/css">
	.st0{fill:#CEE1F2;}
	.st1{fill:#47237E;}
	.st2{fill:#43B7C5;}
</style>
<g>
	<path class="st0" d="M80,396c0-44.2,35.8-80,80-80h-60c-44.2,0-80,35.8-80,80s35.8,80,80,80h60C115.8,476,80,440.2,80,396z"/>
	<g>
		<circle class="st1" cx="100" cy="396" r="20"/>
		<circle class="st1" cx="180" cy="396" r="20"/>
		<path class="st1" d="M412,496H100C44.9,496,0,451.1,0,396s44.9-100,100-100h312c55.1,0,100,44.9,100,100S467.1,496,412,496z
			 M100,336c-33.1,0-60,26.9-60,60s26.9,60,60,60h312c33.1,0,60-26.9,60-60s-26.9-60-60-60H100z"/>
	</g>
	<path class="st2" d="M383.2,108.8C349.2,74.7,304,56,256,56s-93.2,18.7-127.2,52.8c-7.8,7.8-20.5,7.8-28.3,0s-7.8-20.5,0-28.3
		C142.1,38.9,197.3,16,256,16s113.9,22.9,155.5,64.5c7.8,7.8,7.8,20.5,0,28.3C403.7,116.6,391,116.6,383.2,108.8z"/>
	<path class="st2" d="M326.7,165.3c-18.9-18.9-44-29.3-70.7-29.3s-51.8,10.4-70.7,29.3c-7.8,7.8-20.5,7.8-28.3,0s-7.8-20.5,0-28.3
		c26.5-26.5,61.6-41,99-41s72.5,14.6,99,41c7.8,7.8,7.8,20.5,0,28.3C347.1,173.1,334.5,173.1,326.7,165.3z"/>
	<path class="st2" d="M270.1,221.9c-3.8-3.8-8.8-5.9-14.1-5.9s-10.4,2.1-14.1,5.9c-7.8,7.8-20.5,7.8-28.3,0
		c-7.8-7.8-7.8-20.5,0-28.3C224.9,182.2,240,176,256,176s31.1,6.2,42.4,17.6c7.8,7.8,7.8,20.5,0,28.3
		C290.6,229.7,278,229.7,270.1,221.9z"/>
	<path class="st1" d="M416,416h-80c-11,0-20-9-20-20s9-20,20-20h80c11,0,20,9,20,20S427,416,416,416z"/>
</g>
</svg>
