<svg width="300" height="161" viewBox="0 0 300 161" fill="none" xmlns="http://www.w3.org/2000/svg">
<path d="M179.648 113.319C179.119 120.126 156.75 121.557 142.188 120.638C132.617 120.03 130.754 118.507 130.754 118.506C139.846 119.989 155.181 120.258 167.612 117.947C178.63 115.899 179.648 113.319 179.648 113.319ZM132.959 109.029C132.959 109.029 131.945 108.96 130.171 109.339C128.469 109.702 123.059 111.422 125.942 112.662C133.969 116.111 162.868 115.287 172.005 112.553C176.811 111.113 174.524 109.251 174.524 109.251C182.896 112.983 156.334 120.479 124.054 115.31C112.217 113.413 129.75 106.797 132.959 109.029ZM141.41 105.156C147.819 105.879 151.095 105.775 158.156 104.457C158.156 104.457 160.016 105.605 162.609 106.601C146.933 113.235 127.173 106.353 138.846 102.885L139.209 102.781C139.209 102.781 136.121 104.556 141.41 105.156ZM137.273 94.0355C137.273 94.0355 133.808 96.5693 139.102 97.1107C145.949 97.809 151.354 97.8659 160.713 96.0867L160.747 96.1204C160.966 96.3282 162.198 97.4501 164.038 98.0906C144.897 103.62 123.578 98.5258 137.273 94.0355ZM166.761 99.9254C166.761 99.9242 166.994 99.7162 167.064 99.5306C182.239 91.7437 175.222 84.2602 170.325 85.2682C169.127 85.5146 168.59 85.729 168.59 85.729C168.59 85.729 169.036 85.0384 169.886 84.7414C179.574 81.3782 187.024 94.6634 166.761 99.9254ZM140.696 84.9725L140.672 84.9781C140.018 85.1336 126.221 88.4509 135.491 89.6752C139.501 90.2051 147.49 90.0835 154.936 89.4666C161.02 88.9616 167.125 87.8832 167.125 87.8832C167.125 87.8832 164.982 88.7914 163.43 89.8371C148.5 93.7162 119.667 91.9094 127.969 87.944C134.987 84.591 140.696 84.9725 140.696 84.9725ZM168.047 57.3181C150.41 67.4224 153.667 70.3517 157.917 76.2493C162.465 82.5763 152.559 87.6266 152.559 87.6266C152.559 87.6266 157.487 83.6362 153.583 79.1978C140.361 64.1469 168.047 57.3187 168.047 57.3181ZM157.917 41L157.945 41.0295C158.544 41.6647 165.671 49.8102 149.946 62.0707C136.815 72.3146 146.952 78.1539 149.941 84.8285C142.276 77.9978 136.653 71.9837 140.425 66.3869C145.963 58.1731 161.306 54.1891 157.917 41Z" fill="#47237E"/>
</svg>
