<svg width="300" height="161" viewBox="0 0 300 161" fill="none" xmlns="http://www.w3.org/2000/svg">
<path d="M162.5 42.7613C164.271 44.0838 167.09 46.8911 168.092 48.9329C169.249 51.2464 169.867 54.2344 170.046 57.4097C170.316 57.6655 170.581 57.9255 170.842 58.1904C176.224 63.6659 179.556 71.2526 179.556 79.6286C179.556 85.2518 178.046 90.5281 175.416 95.0468C176.079 95.3315 176.636 95.8423 177.016 96.6584C177.646 97.9807 178.368 100.185 178.671 101.554C179.113 103.456 178.181 107.494 176.201 108.12C174.453 108.677 172.426 108.654 170.329 108.236C170.073 108.027 169.817 107.679 169.607 107.308C168.116 107.261 166.694 107.378 165.529 108.004C165.646 109.117 164.9 109.28 164.178 109.512C163.665 111.577 165.226 114.268 164.853 116.124C164.597 117.47 162.943 117.679 161.731 117.911C161.685 118.653 161.778 119.28 161.871 119.906C161.592 120.927 160.356 121.507 159.168 121.646C155.277 122.11 149.382 122.319 145.654 120.973C144.605 118.421 143.79 115.336 142.928 112.435C139.293 112.83 136.334 110.881 133.561 109.582C132.606 109.141 131.277 108.885 130.905 108.12C130.555 107.378 130.695 105.962 130.602 104.64C130.562 103.99 130.522 103.344 130.477 102.701C129.867 102.174 129.279 101.62 128.714 101.043C123.332 95.5679 120 87.9811 120 79.6286C120 71.276 123.332 63.689 128.714 58.1904C129.396 57.4969 130.111 56.8365 130.857 56.212C130.957 53.2536 131.775 50.813 133.864 49.8841C134.842 46.0096 138.337 44.7336 141.623 42.8078C142.858 42.0886 144.209 41.6246 145.607 41.114C150.617 39.2812 158.329 39.6292 162.5 42.7613ZM142.625 100.162C143.394 107.145 144.489 112.992 146.516 119.187C151.013 120.556 156.419 120.672 160.403 119.442C159.681 115.962 159.984 111.716 159.564 107.981C159.238 105.173 159.401 102.366 158.958 99.512C154.135 98.5145 147.332 99.2801 142.625 100.162ZM160.613 109.999C160.543 111.739 160.776 114.5 160.869 116.333C162.034 116.333 162.523 116.078 163.386 115.8C163.479 113.665 162.71 111.693 162.477 109.744C162.011 109.582 161.172 110.022 160.613 109.999ZM138.151 79.2107C134.493 80.6494 131.068 83.132 128.015 85.4983C130.928 91.7396 132.116 99.3729 132.326 106.728C135.658 108.282 138.594 110.533 143.137 110.765C142.601 107.076 142.136 103.758 141.833 100.278C140.691 99.7905 139.06 100.301 137.988 100.138C137.988 98.8625 139.619 99.5817 139.759 98.7233C139.852 98.0735 138.85 98.0272 139.176 97.0064C140.015 97.308 140.458 97.9807 141.343 98.2361C142.159 96.4728 141.343 93.3406 141.46 91.8556C141.483 91.5774 141.599 90.3243 142.229 90.5331C142.788 90.7187 142.205 93.8974 142.252 95.2894C142.299 96.5887 142.089 97.8184 142.625 98.6305C147.005 98.0272 151.456 97.6559 156.209 97.5168C155.16 97.076 153.925 96.6584 152.574 95.8926C151.828 95.475 149.522 94.6166 149.312 93.9205C148.962 92.8068 150.197 92.2269 150.407 91.2755C148.194 92.482 147.774 90.1157 147.238 88.4682C146.772 86.96 146.493 85.8233 146.376 84.9647C144.442 83.9904 142.392 83.0855 140.761 81.9254C140.458 81.7166 138.431 79.0947 138.151 79.2107ZM162.454 99.2801C161.638 99.3035 160.915 99.2801 160.1 99.5583C160.053 102.552 160.24 105.521 160.473 108.514C161.638 108.352 162.407 108.236 163.479 107.981C163.129 105.104 163.176 101.832 162.454 99.2801ZM172.939 96.4262C171.331 97.4471 168.512 97.7488 167.347 98.9785C167.929 100.927 168.115 103.572 168.348 106.032C170.352 106.148 172.799 105.475 174.477 106.194C173.311 106.565 171.82 106.565 170.818 107.122C171.657 107.517 173.568 107.447 174.826 107.146C176.55 106.728 177.622 104.64 177.133 102.482C176.807 101.043 176.247 98.3057 175.618 97.3774C175.175 96.7047 173.941 95.7998 172.939 96.4262ZM164.248 99.0713C164.504 101.508 165.086 104.199 165.296 106.774C166.112 106.797 166.554 106.403 167.23 106.287C167.277 104.036 167.044 100.927 165.948 99.0713C165.389 98.9553 164.76 99.0713 164.248 99.0713ZM174.826 103.456C173.265 103.48 171.331 103.456 169.84 103.34C170.725 102.389 173.824 102.992 174.826 103.456ZM174.337 101.159C172.939 101.299 171.308 101.531 169.91 101.415C170.585 100.394 173.148 100.765 174.337 101.159ZM173.591 98.5145C171.89 98.8625 170.702 100.51 169.024 100.394C169.956 99.1176 171.541 98.5608 173.591 98.5145ZM131.009 58.4627L131.487 58.0304C130.973 58.4829 130.476 58.9541 129.996 59.4432C124.94 64.6171 121.794 71.7402 121.794 79.6286C121.794 87.517 124.94 94.6398 129.996 99.8137L130.256 100.073C130.066 98.223 129.783 96.3666 129.297 94.4541C128.901 92.8765 128.178 91.5077 127.689 89.9997C127.223 88.6075 126.431 86.8674 126.221 85.4752C125.918 83.4105 127.876 83.2943 129.111 82.3894C131.045 80.9974 132.559 80.2316 134.656 78.9788C135.285 78.6077 137.149 77.6796 137.359 77.2386C137.778 76.3805 136.637 75.1739 136.334 74.501C135.844 73.4338 135.588 72.5289 135.518 71.4846C133.771 71.2063 132.419 70.1623 131.627 69.0023C130.299 67.0533 129.367 63.4571 130.532 60.7426C130.625 60.5338 131.068 60.0928 131.138 59.768C131.221 59.3809 131.114 58.9196 131.009 58.4627ZM164.97 77.6099C164.481 78.3757 163.362 78.8859 162.943 79.5126C165.995 78.0509 166.554 85.0113 165.343 87.2618C165.529 87.9346 166.158 88.1899 166.415 88.7929C164.714 91.8325 162.826 94.6629 161.079 97.6559C162.36 96.8438 164.224 97.5168 165.739 96.9135C166.298 96.7047 166.694 95.4287 167.114 94.4078C168.278 91.6237 169.49 88.0968 170.026 85.4523C170.143 84.849 170.492 83.5262 170.399 82.9926C170.259 82.0183 168.954 81.299 168.278 80.7189C167.044 79.6052 166.275 78.6542 164.97 77.6099ZM154.741 88.7003C152.993 89.8601 151.083 90.9741 150.57 93.0853C153.087 94.5007 155.999 95.8695 158.842 96.7279C157.63 93.8974 156.535 90.9741 154.741 88.7003ZM161.824 87.9809C161.708 90.8116 161.382 94.5238 160.636 96.7279C162.43 94.431 163.898 91.7859 165.413 89.1874C164.76 88.1434 163.409 87.2385 161.824 87.9809ZM170.098 60.0088L170.083 60.634C169.982 63.8243 169.489 67.0386 168.698 69.8144C168.442 70.6959 168.092 71.9719 167.58 73.0393C167.23 73.7817 166.135 75.2434 166.251 75.8929C166.391 76.5659 168.768 78.3523 169.281 78.8396C170.189 79.7212 171.937 80.8814 172.076 81.9951C172.24 83.1783 171.564 84.8024 171.215 85.9393C170.096 89.7444 168.978 93.2478 167.696 96.6584C169.229 95.9016 171.518 94.8485 173.506 94.7512L173.351 95.0032C176.139 90.5656 177.762 85.2945 177.762 79.6286C177.762 72.0236 174.838 65.1303 170.098 60.0088ZM158.446 86.7977V86.7979C157.77 86.728 157.188 87.5866 156.302 87.2153C156.092 87.4473 155.906 87.6795 155.696 87.9114C157.654 90.2777 158.562 93.6191 160.077 96.3799C160.892 93.712 160.799 90.8116 160.986 87.9114C159.867 87.9577 159.238 86.8674 158.446 86.7977ZM159.518 91.3452C159.867 91.3452 160.123 91.6005 160.123 91.9484C160.123 92.2735 159.844 92.5517 159.518 92.5517C159.191 92.5517 158.912 92.2735 158.912 91.9484C158.912 91.6234 159.191 91.3452 159.518 91.3452ZM147.378 85.5914C147.448 86.9368 148.147 88.3522 148.45 89.2571C148.59 89.6747 148.636 90.1155 148.986 90.2083C149.615 90.3477 151.712 89.5356 152.295 89.2106C153.553 88.5378 154.531 87.4475 155.603 86.7049L155.65 85.6377C154.997 85.3127 154.275 85.1041 153.32 85.0578C153.949 84.7328 154.904 84.7328 155.487 84.3617C155.487 84.2223 155.487 84.0832 155.51 83.9438C154.438 83.8279 154.042 83.3639 153.32 82.9695C152.178 82.3428 150.454 81.6701 148.962 81.3918C147.122 81.0437 147.308 83.8975 147.378 85.5914ZM158.912 88.5378C159.261 88.5378 159.518 88.8161 159.518 89.1411C159.518 89.4659 159.238 89.7444 158.912 89.7444C158.586 89.7444 158.306 89.4659 158.306 89.1411C158.306 88.8161 158.586 88.5378 158.912 88.5378ZM148.855 81.9311C150.19 82.1804 151.855 82.7964 153.042 83.4479L153.64 83.8329L153.938 84.0172L154.214 84.1626L154.174 84.174C153.634 84.2946 153.362 84.373 153.062 84.5222L151.103 85.4977L153.291 85.6064L153.743 85.6459C154.037 85.6833 154.318 85.7427 154.593 85.824L155.058 85.9836L155.039 86.3753L154.741 86.6001L153.9 87.293L153.697 87.4647C152.987 88.0619 152.53 88.4023 152.015 88.6868C151.287 89.0776 149.742 89.6155 149.24 89.638L149.149 89.6313C149.158 89.625 149.158 89.6202 149.158 89.6135L148.996 89.0529L148.519 87.7996C148.261 87.1124 148.098 86.5701 148.011 86.0548L147.973 85.7907L147.941 85.2588C147.923 84.8358 147.914 84.5425 147.912 84.265L147.913 84.058C147.921 83.2651 148.003 82.674 148.173 82.2992C148.325 81.9641 148.498 81.8635 148.855 81.9311ZM158.958 83.0392C159.075 83.3639 159.261 83.6191 159.285 84.0367C159.914 83.8744 160.659 83.9904 161.195 84.2455C160.566 84.3152 159.89 84.3152 159.471 84.6168C159.331 85.0576 159.518 85.6377 159.401 86.241C160.869 86.6586 162.57 86.8674 164.434 86.9368C164.784 86.4729 164.923 85.5911 164.877 84.6865C164.83 83.6191 164.55 81.415 163.875 81.0205C162.477 80.2084 160.007 82.6678 158.958 83.0392ZM163.591 81.5419C163.891 81.7168 164.242 83.3181 164.302 84.7339L164.31 85.0794C164.306 85.5307 164.247 85.9392 164.146 86.2475L164.094 86.373L163.676 86.3571C162.407 86.2875 161.233 86.1257 160.178 85.8747L160.001 85.8279L159.977 85.1021L159.978 85.0147L160.097 84.9815C160.183 84.9598 160.288 84.9411 160.417 84.9237L161.259 84.838L163.259 84.6172L161.443 83.7523L161.137 83.6256C160.713 83.475 160.237 83.3994 159.785 83.4145L159.728 83.4181L159.695 83.3334L160.029 83.1285L161.006 82.4752L161.51 82.1521C161.665 82.0571 161.81 81.9734 161.95 81.8975C162.731 81.4748 163.276 81.3642 163.591 81.5419ZM156.279 83.9438C156.209 84.7559 156.395 85.0113 156.558 85.9393C159.215 86.7745 158.772 82.2965 156.279 83.9438ZM157.828 84.7296L157.835 84.9087C157.822 85.3059 157.591 85.5545 157.153 85.5394L157.061 85.5262L156.883 84.7439L156.849 84.5056L156.838 84.2865L156.969 84.226C157.492 84.0119 157.773 84.2367 157.828 84.7296ZM142.369 80.9974C141.413 81.9717 145.048 83.2711 146.19 83.3408C146.19 82.7375 146.539 82.1576 146.469 81.7166C145.095 81.4847 143.301 81.647 142.369 80.9974ZM159.984 80.9509C158.166 81.1134 155.883 82.2271 154.112 81.4381C154.112 81.531 153.995 81.5078 153.972 81.5775C155.207 82.5287 156.116 82.7373 157.77 82.6447C158.516 82.1111 159.191 81.4615 159.984 80.9509ZM148.473 42.6453C145.537 44.1069 141.576 46.5198 140.225 49.5596C141.483 52.5058 139.852 55.1971 139.735 58.1901C139.689 59.7911 140.481 61.1602 140.551 62.9003C140.108 63.6196 138.803 63.689 137.895 63.6427C137.592 62.1112 137.056 60.3944 135.471 60.2087C133.235 59.9536 131.58 61.8098 131.487 63.7356C131.371 66.0093 133.235 69.7678 135.891 69.5127C136.916 69.4199 137.173 68.399 138.291 68.399C138.897 69.6056 137.359 69.9766 137.196 70.835C137.149 71.0672 137.312 71.9256 137.429 72.3432C137.918 74.3153 138.99 76.8907 140.038 78.3989C141.39 80.3244 144.023 80.6029 146.865 80.7886C147.378 79.698 149.242 79.7908 150.454 80.0693C148.986 79.4894 147.634 78.0972 146.516 76.8675C145.234 75.4522 143.93 73.9442 143.86 72.0881C146.306 75.4522 148.31 78.3989 152.737 79.8839C156.092 80.9974 160.007 79.3732 162.593 77.5636C163.665 76.821 164.294 75.6147 165.063 74.5473C167.906 70.4639 169.234 64.6634 168.954 59.0256C168.838 56.7056 168.838 54.3853 168.045 52.8308C167.23 51.2066 164.457 49.7218 162.826 51.2066C162.523 49.6059 164.178 48.6313 166.111 49.2114C164.737 47.425 163.292 45.3135 161.312 44.1998C157.887 42.2742 152.108 40.8357 148.473 42.6453ZM152.504 71.2992C153.809 74.5473 158.259 74.1762 162.011 74.0833C161.848 74.501 161.498 75.0114 161.032 75.1737C159.82 75.661 156.512 76.0323 154.834 75.1505C153.786 74.5938 153.087 73.3176 152.504 72.5752C152.248 72.2272 150.85 71.3223 152.504 71.2992ZM152.854 69.4893C154.718 70.4639 158.166 70.5799 160.729 70.5102C160.869 71.0672 160.869 71.7631 160.869 72.436C157.584 72.5752 153.716 71.7631 152.854 69.4893ZM166.927 68.2596C165.925 70.1623 164.504 72.2504 161.568 72.3201C161.498 71.7168 161.452 70.7656 161.568 70.3943C163.828 70.1623 165.226 69.0254 166.927 68.2596ZM160.333 57.1463C161.195 59.1416 163.362 61.7169 164.923 63.4339C165.319 63.8515 165.948 64.2692 166.018 64.5476C166.207 65.2575 165.622 66.1177 165.571 66.6718L165.576 66.8443C163.432 68.2134 161.032 69.7215 157.491 69.3734C156.745 68.7238 156.442 67.2619 157.188 66.3109C157.56 66.9605 157.327 68.1671 158.399 68.3525C160.403 68.7006 162.733 67.1228 164.178 66.5894C165.063 65.0812 164.108 64.5476 163.292 63.5731C161.638 61.601 159.448 59.1416 159.518 56.1951C160.193 55.7078 160.24 56.9375 160.333 57.1463ZM137.237 65.1755L137.196 65.406C136.52 65.0116 136.357 63.3411 135.565 63.2946C134.423 63.2251 134.633 65.4757 134.633 66.798C133.864 66.1021 133.724 63.921 134.283 62.8075C133.631 62.4825 133.351 63.1554 132.978 63.3874C133.457 60.0965 137.749 61.7567 137.237 65.1755ZM139.223 50.0003C136.963 50.1857 135.122 51.0907 133.794 52.5757C132.349 54.1765 132.652 57.1463 132.815 59.2807C135.448 57.6336 138.92 59.42 138.897 62.2042C140.155 62.1808 139.363 60.6497 139.13 59.652C138.384 56.4271 140.388 52.9468 139.223 50.0003ZM153.017 54.9191C153.669 56.1023 153.879 57.332 154.787 58.2137C155.207 58.608 155.999 59.0953 155.603 60.2087C155.51 60.4641 154.834 61.0442 154.438 61.1602C153.017 61.5778 149.685 61.253 150.803 59.4663C151.991 59.5129 153.576 60.2321 154.462 59.3735C153.786 58.3063 152.574 56.1717 153.017 54.9191ZM166.251 54.8723C166.927 56.2646 167.51 57.7496 168.372 59.0024C167.79 60.3481 164.038 61.5081 164.084 59.1416C164.9 58.7936 166.298 59.0719 167.02 58.608C166.601 57.4711 166.018 56.4965 166.112 54.8726V54.8723H166.251ZM150.291 49.745C151.036 49.8378 152.061 50.5339 151.502 51.4851C148.496 50.789 147.005 52.738 146.097 54.7564C145.281 54.5709 145.607 53.4572 145.817 52.9005C146.353 51.4388 148.52 49.4665 150.291 49.745ZM144.186 43.3182C140.901 44.2463 136.683 46.636 135.332 49.5825C136.38 49.4202 137.103 48.9098 138.128 48.8401C138.524 48.8169 139.037 49.0026 139.479 48.8866C140.365 48.6546 141.134 46.6592 141.809 45.9168C142.462 45.1975 143.254 44.8727 143.79 44.2232C144.139 44.0606 144.652 44.0606 144.675 43.5502C144.535 43.3877 144.372 43.2719 144.186 43.3182Z" fill="#47237E"/>
</svg>
