<svg width="300" height="161" viewBox="0 0 300 161" fill="none" xmlns="http://www.w3.org/2000/svg">
<path d="M157.157 68.1934L163.462 74.491L169.936 80.9464L171.202 82.2143C174.797 85.7924 176.257 90.9787 175.053 95.896C179.381 96.5097 182.595 100.202 182.59 104.555C182.59 109.381 178.663 113.294 173.816 113.298C169.646 113.297 166.052 110.374 165.218 106.306C160.079 107.879 154.487 106.5 150.68 102.72H150.688L157.157 96.2642C159.259 98.3368 162.647 98.3311 164.742 96.2515C166.838 94.1496 166.831 90.7564 164.728 88.6624L163.46 87.4018L156.993 80.9464L150.68 74.647L157.157 68.2006V68.1934ZM127.531 82.227L134.008 88.6842C131.932 90.7838 131.941 94.1556 134.028 96.2442C135.037 97.2527 136.408 97.8202 137.837 97.8215C139.267 97.8229 140.639 97.258 141.65 96.2515L142.916 94.9818L149.383 88.5355L155.705 82.2288L162.172 88.6842L155.859 94.9728L149.392 101.435L148.117 102.696C144.513 106.292 139.277 107.74 134.327 106.509C133.406 110.474 129.861 113.284 125.773 113.289C120.927 113.285 117 109.372 117 104.546C116.997 100.494 119.793 96.9708 123.753 96.0357C122.481 91.0915 123.917 85.8457 127.531 82.227ZM125.859 48C130.157 48.0043 133.821 51.1037 134.52 55.3261C139.41 54.1767 144.55 55.6295 148.104 59.1659L141.628 65.6214C139.523 63.5513 136.135 63.561 134.042 65.6431C131.939 67.7393 131.933 71.1334 134.028 73.2376L135.303 74.4982L141.77 80.9464L148.104 87.2531H148.095L141.628 93.6994L135.301 87.4018L128.827 80.9464L127.559 79.6931C123.775 75.9212 122.378 70.3848 123.923 65.2804C120.01 64.397 117.091 60.9163 117.091 56.7427C117.089 54.4256 118.012 52.2026 119.656 50.563C121.301 48.9234 123.532 48.0014 125.859 48ZM173.736 48C178.584 48.003 182.511 51.9163 182.511 56.7427C182.517 61.1271 179.261 64.8381 174.897 65.4218C176.356 70.4811 174.951 75.9304 171.224 79.664L164.75 73.2159C166.844 71.1124 166.836 67.7224 164.73 65.6368C162.625 63.5511 159.22 63.5597 157.126 65.6558L155.869 66.9182L149.392 73.3646L143.065 79.6713L136.589 73.2159L142.916 66.911L150.658 59.2022C154.42 55.4513 159.938 54.0459 165.046 55.5383C165.65 51.2196 169.357 48.0037 173.736 48Z" fill="#47237E"/>
</svg>
