<?xml version="1.0" encoding="utf-8"?>
<!-- Generator: Adobe Illustrator 25.4.1, SVG Export Plug-In . SVG Version: 6.00 Build 0)  -->
<svg version="1.1" id="Layer_1" xmlns="http://www.w3.org/2000/svg" xmlns:xlink="http://www.w3.org/1999/xlink" x="0px" y="0px"
	 viewBox="0 0 316 51" style="enable-background:new 0 0 316 51;" xml:space="preserve">
<style type="text/css">
	.st0{fill:#FFFFFF;}
	.st1{fill:#43B7C5;}
</style>
<g id="Layer_2_00000026869668236966737310000017336727162630309311_">
	<g id="Layer_1-2">
		<path class="st0" d="M26,34.3l-2.9-7.9c-0.2-0.4,0-0.9,0.3-1.2c2.2-1.9,2.4-5.3,0.5-7.5s-5.3-2.4-7.5-0.5s-2.4,5.3-0.5,7.5
			c0.1,0.2,0.3,0.3,0.5,0.5c0.3,0.3,0.5,0.8,0.3,1.2l-2.9,7.9c-0.1,0.3,0,0.6,0.3,0.7c0.1,0,0.1,0,0.2,0h11.1c0.3,0,0.5-0.2,0.5-0.5
			C26,34.4,26,34.3,26,34.3z"/>
		<path class="st0" d="M51.4,25.4c0.1-9,7.4-16.2,16.4-16.2c0.1,0,0.1,0,0.2,0c3.3,0,6.5,0.9,9.2,2.7c1.2,0.8,1.5,2.4,0.7,3.6
			c-0.8,1.2-2.4,1.5-3.6,0.7l0,0c-1.9-1.2-4.1-1.9-6.4-1.9c-6.2-0.1-11.3,4.9-11.4,11.1c0.1,6.2,5.2,11.1,11.4,11.1
			c2.3,0,4.6-0.7,6.5-2c1.2-0.8,2.8-0.5,3.6,0.7c0.8,1.2,0.5,2.8-0.7,3.6l0,0c-7.5,5.2-17.8,3.2-23-4.3
			C52.5,31.8,51.5,28.6,51.4,25.4z"/>
		<path class="st0" d="M80.3,25.5c0.3-9.1,8-16.2,17.1-15.9c8.7,0.3,15.6,7.3,15.9,15.9c-0.3,9.1-8,16.2-17.1,15.9
			C87.6,41.1,80.6,34.1,80.3,25.5z M96.8,36.5c6.2,0.1,11.3-4.8,11.4-11l0,0c0-6.3-5.1-11.4-11.4-11.4s-11.4,5.1-11.4,11.4
			C85.5,31.7,90.6,36.6,96.8,36.5L96.8,36.5z"/>
		<path class="st0" d="M117.1,38.4c0-1.4,1.1-2.6,2.5-2.6c0.1,0,0.1,0,0.2,0H131c5.7,0,9.1-4.5,9.1-10.4c0-8.3-6.1-10.2-9.1-10.2
			h-11.3c-1.4,0.1-2.6-1-2.6-2.4c0-0.1,0-0.1,0-0.2c0-1.4,1.1-2.6,2.5-2.6c0,0,0,0,0.1,0H131c5.7,0,14.2,4,14.2,15.4
			c0,8.8-5.8,15.5-14.2,15.5h-11.4C118.2,40.9,117.1,39.8,117.1,38.4L117.1,38.4z"/>
		<path class="st0" d="M151,38.4V12.6c0-1.4,1.1-2.6,2.5-2.6l0,0c1.4,0,2.6,1.1,2.6,2.5v25.8c0,1.4-1.2,2.5-2.6,2.5
			C152.1,40.9,151,39.8,151,38.4z"/>
		<path class="st0" d="M162.1,38.3V12.7c0-1.1,0.7-2.1,1.7-2.5c1-0.4,2.2-0.1,2.9,0.7l18.8,20.6V12.7c0-1.5,1.2-2.7,2.7-2.7
			s2.6,1.2,2.6,2.7v25.6c0,1.1-0.7,2.1-1.7,2.5s-2.2,0.1-2.9-0.7l-18.8-20.7v18.9c0,1.5-1.2,2.7-2.6,2.7
			C163.3,40.9,162.1,39.7,162.1,38.3L162.1,38.3L162.1,38.3z"/>
		<path class="st0" d="M195.7,25.5c0.1-9,7.5-16.3,16.5-16.2c3.3,0,6.5,1,9.2,2.8c1.2,0.8,1.5,2.3,0.8,3.5l0,0
			c-0.7,1.2-2.3,1.5-3.4,0.8c0,0,0,0-0.1,0c-1.9-1.2-4.1-1.9-6.4-1.9c-6.2-0.1-11.3,4.9-11.4,11.1l0,0c0.1,6.2,5.1,11.1,11.3,11.1
			l0,0c4.4,0.2,8.4-2.8,9.5-7.1h-7.2c-1.4,0.1-2.6-1-2.7-2.4c-0.1-1.4,1-2.6,2.4-2.7c0.1,0,0.2,0,0.3,0h10c1.3,0,2.4,1.1,2.5,2.5
			c0.3,7.9-5.9,14.6-13.9,14.9c-0.3,0-0.6,0-0.9,0C203.2,41.7,195.8,34.5,195.7,25.5z"/>
		<path class="st1" d="M231.8,38.4V12.6c0-1.4,1.1-2.6,2.6-2.6c1.4,0,2.6,1.1,2.6,2.6l0,0v12l15.9-13.9c1.1-0.9,2.8-0.8,3.7,0.4
			c0.9,1.1,0.8,2.6-0.2,3.6L244.7,25l11.8,11.5c1,1,1.1,2.7,0.1,3.7s-2.7,1-3.7,0l0,0l-12.1-11.7l-3.7,3.2v6.8
			c0,1.4-1.2,2.6-2.6,2.6C232.9,40.9,231.8,39.8,231.8,38.4z"/>
		<path class="st1" d="M262.7,10h19.9c1.4,0.1,2.5,1.3,2.4,2.7c-0.1,1.3-1.1,2.3-2.4,2.4h-19.9c-1.4,0.1-2.6-1-2.7-2.4
			s1-2.6,2.4-2.7C262.6,10,262.7,10,262.7,10L262.7,10z M260.2,38.3V27c-0.1-1.4,1-2.6,2.4-2.6c0.1,0,0.1,0,0.2,0h14.3
			c1.4,0.1,2.5,1.3,2.4,2.7c-0.1,1.3-1.1,2.3-2.4,2.4h-11.8v6.3h17.2c1.4,0.1,2.5,1.3,2.4,2.7c-0.1,1.3-1.1,2.3-2.4,2.4h-19.8
			C261.3,40.9,260.2,39.8,260.2,38.3C260.2,38.4,260.1,38.4,260.2,38.3L260.2,38.3z"/>
		<path class="st1" d="M299.5,38.3V26.5l-10.8-12.2c-0.9-1.1-0.7-2.7,0.4-3.6c1-0.8,2.5-0.7,3.4,0.2l9.5,10.7l9.5-10.7
			c0.9-1.1,2.6-1.1,3.6-0.2c1.1,0.9,1.1,2.6,0.2,3.6l0,0l-10.8,12.2v11.9c0.1,1.4-1,2.6-2.4,2.7c-1.4,0.1-2.6-1-2.7-2.4
			C299.4,38.6,299.4,38.4,299.5,38.3z"/>
		<path class="st1" d="M0,48.3V2.6C-0.1,1.2,1,0.1,2.4,0c0.1,0,0.1,0,0.2,0H11c1.4,0,2.6,1.2,2.6,2.6S12.4,5.2,11,5.2H5.3v40.4h5.8
			c1.5,0,2.6,1.2,2.6,2.6s-1.2,2.6-2.6,2.6l0,0H2.6C1.2,50.9,0,49.8,0,48.3C0,48.4,0,48.4,0,48.3z"/>
		<path class="st1" d="M26.4,48.3c0-1.4,1.2-2.6,2.6-2.6h5.8V5.3H29c-1.4,0-2.6-1.2-2.6-2.6s1.2-2.6,2.6-2.6h8.4
			C38.8,0,40,1.1,40,2.5c0,0.1,0,0.1,0,0.2v45.7c0.1,1.4-1,2.6-2.4,2.6c-0.1,0-0.1,0-0.2,0H29C27.6,50.9,26.4,49.7,26.4,48.3z"/>
	</g>
</g>
</svg>
