<?xml version="1.0" encoding="utf-8"?>
<!-- Generator: Adobe Illustrator 25.4.1, SVG Export Plug-In . SVG Version: 6.00 Build 0)  -->
<svg version="1.1" id="Capa_1" xmlns="http://www.w3.org/2000/svg" xmlns:xlink="http://www.w3.org/1999/xlink" x="0px" y="0px"
	 viewBox="0 0 512 512" style="enable-background:new 0 0 512 512;" xml:space="preserve">
<style type="text/css">
	.st0{fill:#CEE1F2;}
	.st1{fill:#47237E;}
	.st2{fill:#43B7C5;}
</style>
<g>
	<path class="st0" d="M80,292c0-100.1,73.9-183.2,170-197.7c-9.8-1.5-19.8-2.3-30-2.3C109.7,92,20,181.7,20,292s89.7,200,200,200
		c10.2,0,20.2-0.8,30-2.2C153.9,475.2,80,392.1,80,292z"/>
	<path class="st1" d="M220,512C98.7,512,0,413.3,0,292S98.7,72,220,72c27.7,0,54.8,5.1,80.4,15.2c10.3,4,15.3,15.7,11.3,25.9
		c-4,10.3-15.7,15.3-25.9,11.3c-20.9-8.2-43.1-12.4-65.7-12.4c-99.3,0-180,80.7-180,180s80.7,180,180,180s180-80.7,180-180
		c0-22.7-4.2-44.8-12.4-65.7c-4-10.3,1-21.9,11.3-25.9c10.3-4,21.9,1,25.9,11.3c10.1,25.6,15.2,52.7,15.2,80.4
		C440,413.3,341.3,512,220,512z"/>
	<path class="st2" d="M220,432c-77.2,0-140-62.8-140-140c0-80.1,67.5-144.2,147.8-139.8c11,0.6,19.5,10,18.9,21.1
		c-0.6,11-10,19.5-21.1,18.9c-1.8-0.1-3.7-0.2-5.6-0.2c-55.1,0-100,44.9-100,100s44.9,100,100,100c57.1,0,103-48.1,99.8-105.6
		c-0.6-11,7.8-20.5,18.9-21.1c11.4-0.6,21.3,6.4,21.3,26.7C360,369.2,297.2,432,220,432z"/>
	<path class="st1" d="M511,93.7c-3.5-10.5-14.8-16.1-25.3-12.6l-82.1,27.4L431,26.3c3.5-10.5-2.2-21.8-12.6-25.3
		c-10.5-3.5-21.8,2.2-25.3,12.6l-38.5,115.5L205.9,277.9c-7.8,7.8-7.8,20.5,0,28.3c3.9,3.9,9,5.9,14.1,5.9s10.2-2,14.1-5.9
		l148.7-148.7L498.3,119C508.8,115.5,514.5,104.2,511,93.7L511,93.7z"/>
</g>
</svg>
