<?xml version="1.0" encoding="utf-8"?>
<!-- Generator: Adobe Illustrator 25.4.1, SVG Export Plug-In . SVG Version: 6.00 Build 0)  -->
<svg version="1.1" id="Capa_1" xmlns="http://www.w3.org/2000/svg" xmlns:xlink="http://www.w3.org/1999/xlink" x="0px" y="0px"
	 viewBox="0 0 512 512" style="enable-background:new 0 0 512 512;" xml:space="preserve">
<style type="text/css">
	.st0{fill:#CEE1F2;}
	.st1{fill:#47237E;}
	.st2{fill:#43B7C5;}
</style>
<g>
	<path class="st0" d="M156,180c0-78.1,56-143.1,130-157.2c-9.7-1.8-19.7-2.8-30-2.8C167.6,20,96,91.6,96,180s71.6,160,160,160
		c10.3,0,20.3-1,30-2.8C212,323.1,156,258.1,156,180L156,180z"/>
	<path class="st1" d="M256,360c-99.2,0-180-80.7-180-180S156.8,0,256,0s180,80.7,180,180S355.2,360,256,360z M256,40
		c-77.2,0-140,62.8-140,140s62.8,140,140,140s140-62.8,140-140S333.2,40,256,40z"/>
	<path class="st1" d="M327.1,509.9L256,474.3l-71.1,35.5c-13.3,6.6-28.9-3-28.9-17.9v-85.7c0-11,9-20,20-20s20,9,20,20v53.3
		l51.1-25.5c5.6-2.8,12.3-2.8,17.9,0l51.1,25.5v-53.3c0-11,9-20,20-20c11,0,20,9,20,20V492C356,506.9,340.3,516.5,327.1,509.9
		L327.1,509.9z"/>
	<path class="st2" d="M293.7,262.4L256,242.6l-37.7,19.8c-14.6,7.7-31.8-4.8-29-21.1l7.2-42L166,169.6
		c-11.8-11.5-5.3-31.7,11.1-34.1l42.2-6.1l18.9-38.2c7.3-14.8,28.5-14.8,35.9,0l18.9,38.2l42.2,6.1c16.4,2.4,22.9,22.6,11.1,34.1
		l-30.5,29.7l7.2,42C325.5,257.7,308.3,270.1,293.7,262.4z M222.9,169.2l9,8.8c4.7,4.6,6.9,11.2,5.8,17.7l-2.1,12.4l11.2-5.9
		c5.8-3.1,12.8-3.1,18.6,0l11.2,5.9l-2.1-12.4c-1.1-6.5,1-13.1,5.8-17.7l9-8.8l-12.5-1.8c-6.5-0.9-12.1-5-15.1-10.9l-5.6-11.3
		l-5.6,11.3c-2.9,5.9-8.5,10-15.1,10.9L222.9,169.2z"/>
</g>
</svg>
