<svg width="300" height="161" viewBox="0 0 300 161" fill="none" xmlns="http://www.w3.org/2000/svg">
<path d="M164.87 76.6011C164.655 73.8211 164.002 71.1404 163.093 68.5142C161.211 62.6502 158.191 57.4605 153.936 52.9952C152.861 51.8658 151.664 50.831 150.914 49.4253C150.44 48.5362 149.988 47.6349 149.525 46.7388L149.232 46C149.183 46.1695 149.151 46.2298 149.15 46.2908C149.112 47.7516 148.285 48.7422 147.254 49.6668C146.096 50.7074 145.017 51.8368 143.904 52.9273C142.762 54.4293 141.621 55.9313 140.48 57.4327C139.556 59.1303 138.634 60.8278 137.711 62.5254L135.86 67.5264L135.805 67.6042C134.786 70.9518 134.284 74.3934 134.036 77.8698C133.944 79.1762 134.049 80.5017 134.123 81.8151C134.228 83.6926 134.554 85.5382 135.043 87.3547C136.82 93.9547 140.425 99.4293 145.354 104.08C146.27 104.945 147.21 105.73 148.166 106.553C148.329 105.993 148.46 105.433 148.608 104.873C148.757 104.315 148.907 103.76 149.008 103.201C148.907 103.76 148.794 104.315 148.682 104.873L148.202 106.553L148.63 108.004L149.027 110.258L149.216 112.611C149.215 113.088 149.196 113.567 149.225 114.044C149.232 114.166 149.392 114.279 149.481 114.396L150.279 114.676L151.111 115L150.969 112.909L150.962 110.85L151.249 107.713L151.458 107.03L152.054 105.974C152.789 105.382 153.579 104.844 154.249 104.185C155.462 102.993 156.671 101.786 157.756 100.481C159.164 98.788 160.376 96.9401 161.348 94.9581C161.999 93.6326 162.612 92.2803 163.119 90.895C163.566 89.6739 163.843 88.3907 164.195 87.1348C164.226 87.0442 164.268 86.9554 164.288 86.8632C165.015 83.4732 165.137 80.0491 164.87 76.6011ZM151.178 105.257L150.711 104.234L151.178 105.257L151.864 105.843L151.178 105.257Z" fill="#47237E"/>
</svg>
