<svg width="300" height="161" viewBox="0 0 300 161" fill="none" xmlns="http://www.w3.org/2000/svg">
<path d="M143.692 43.0008C143.816 43.0121 143.839 43.0575 144.031 43.8295C144.382 45.101 145.016 46.8719 145.684 48.4045C146.544 50.3799 148.015 53.309 149.35 55.6704L149.579 56.0795C152.023 56.4541 155.032 56.976 156.401 57.2485C163.667 58.6903 169.405 60.6316 173.841 63.1178C177.067 64.9343 179.704 67.1252 181.877 69.8272C182.624 70.7581 183.246 71.6322 184.151 73.04L184.31 73.2898L183.28 73.4488C176.615 74.4714 166.559 76.9204 157.465 79.6299C157.47 79.7147 157.485 79.8422 157.51 79.9769C157.793 81.6003 157.974 83.2577 158.076 85.3012C158.144 86.5501 158.11 90.2398 158.031 91.341C157.725 95.2803 157.261 98.6067 156.673 101.104C155.688 105.225 153.877 110.05 151.365 115.193C150.629 116.703 149.995 117.918 149.905 117.974C149.859 118.009 148.75 118.009 147.924 117.974C143.839 117.815 136.414 116.76 132.578 115.783C130.269 115.204 127.202 114.171 125.38 113.365C121.804 111.787 118.736 109.471 117.197 107.201C115.998 105.418 115.692 103.488 116.314 101.581C116.665 100.525 117.48 99.1513 118.51 97.8571C119.2 96.9945 120.559 95.6322 121.475 94.9056C121.532 94.8601 121.59 94.8135 121.65 94.7657L121.532 94.8035C129.194 88.4913 134.162 82.8035 136.516 77.6494C137.84 74.7771 138.372 72.3022 138.304 69.4867C138.191 65.1045 136.98 61.9257 134.196 58.7016C133.622 58.0403 129.143 53.6523 128.602 53.1229L128.549 53.0706C128.062 52.6164 127.632 52.1737 127.485 51.8106C127.425 51.6617 127.396 51.5251 127.386 51.4041L127.349 51.3676C127.349 51.2314 127.372 51.0952 127.417 50.9816L127.455 50.9072C127.478 50.8522 127.496 50.8227 127.496 50.8227C127.497 50.8275 127.499 50.8323 127.5 50.8371C127.742 50.4768 128.404 49.8342 128.945 49.449C130.62 48.2685 133.336 46.9061 136.833 45.4755C139.425 44.4198 143.443 42.9667 143.692 43.0006L143.692 43.0008ZM152.112 110.129C152.021 110.141 151.727 110.266 151.376 110.425C149.147 111.469 146.94 112.32 144.71 113.002C142.945 113.547 141.202 113.989 137.58 114.807L135.894 115.193L136.165 115.25C137.354 115.522 142.085 116.351 144.902 116.782C146.521 117.021 149.181 117.395 149.373 117.406C149.452 117.418 149.509 117.327 149.656 116.964C150.324 115.352 152.157 110.243 152.112 110.129ZM140.002 106.758C140.002 106.769 139.685 107.234 139.312 107.802C137.965 109.868 136.346 112.048 134.717 114.001C134.389 114.387 134.117 114.739 134.117 114.761C134.117 114.807 134.491 114.909 134.604 114.886C134.649 114.875 135.418 114.659 136.313 114.398C141.156 113.002 147.098 111.242 149.045 110.629C150.267 110.243 151.931 109.687 152.01 109.641C152.055 109.607 151.919 109.585 151.67 109.562C150.029 109.426 147.245 108.949 145.321 108.461C143.759 108.063 142.594 107.711 141.122 107.155C140.511 106.928 140.013 106.746 140.002 106.758ZM138.01 106.815C137.999 106.803 137.716 106.883 137.388 106.985C135.588 107.552 132.838 108.336 127.881 109.687C126.014 110.198 124.463 110.618 124.44 110.629C124.35 110.652 125.482 111.378 126.387 111.866C127.111 112.252 128.085 112.706 129.024 113.081C129.782 113.388 132.646 114.398 133.053 114.512L133.223 114.557L133.551 113.978C133.743 113.66 134.083 113.093 134.309 112.729C134.547 112.355 135.215 111.287 135.815 110.345C137.218 108.12 138.021 106.826 138.01 106.815ZM130.971 100.275L128.968 102.694C126.059 106.213 124.723 107.904 123.66 109.448L123.331 109.925L123.535 110.073C123.648 110.152 123.75 110.22 123.762 110.22C123.773 110.22 125.255 109.709 127.055 109.074C130.258 107.961 137.173 105.498 137.252 105.441C137.275 105.429 137.003 105.248 136.641 105.043C134.626 103.863 132.963 102.512 131.333 100.684L130.971 100.275ZM129.522 99.7191C129.511 99.7191 128.979 99.8438 128.322 100.003C127.666 100.162 125.844 100.593 124.271 100.956C121.441 101.615 118.419 102.33 118.25 102.376C118.137 102.41 118.137 102.682 118.261 103.227C118.521 104.396 119.178 105.679 120.151 106.894C120.615 107.484 121.656 108.551 122.256 109.051L122.765 109.482L123.241 108.744C123.501 108.336 123.965 107.655 124.271 107.223C124.576 106.792 125.391 105.634 126.093 104.646C128.107 101.819 129.545 99.7417 129.522 99.7191ZM155.337 98.8335C155.303 98.8335 155.133 98.9016 154.918 99.0378C153.085 100.139 147.743 102.705 142.594 104.964C141.734 105.339 141.055 105.656 141.077 105.679C141.145 105.736 142.277 106.247 143.069 106.565C145.899 107.7 148.909 108.551 152.27 109.165C152.338 109.187 152.406 109.198 152.417 109.198C152.429 109.198 152.666 108.483 152.938 107.62C153.56 105.657 153.9 104.544 154.296 103.125C154.771 101.433 155.349 99.0946 155.337 98.8335ZM144.156 94.9168C144.144 94.9168 143.782 95.0645 143.341 95.2462C140.228 96.5858 137.093 97.6756 133.404 98.6859L132.374 98.9698L132.578 99.2195C133.97 100.979 136.097 102.796 138.497 104.272C138.904 104.521 139.244 104.726 139.255 104.726C139.266 104.726 139.617 104.124 140.036 103.375C141.688 100.446 142.979 97.8344 143.963 95.439C144.076 95.1666 144.167 94.9284 144.156 94.9168ZM145.955 94.3264C145.944 94.3378 145.887 94.5308 145.796 94.7465C145.072 96.9943 143.646 100.23 142.231 102.886C141.971 103.374 141.767 103.772 141.767 103.783C141.767 103.795 141.892 103.76 142.028 103.704C142.164 103.647 142.888 103.374 143.624 103.102C148.682 101.206 153.628 99.14 155.133 98.2998L155.496 98.0957L155.235 98.0388C152.361 97.3691 148.988 96.0635 146.566 94.6557C146.238 94.4628 145.966 94.3151 145.955 94.3264ZM128.3 91.1589C128.289 91.162 128.284 91.1646 128.279 91.1673C128.273 91.1717 128.267 91.174 128.26 91.1772C127.721 91.4617 127.192 91.7464 126.67 92.0334L127.274 91.7044C126.643 92.0521 125.835 92.5052 125.21 92.8617C123.603 93.7815 122.664 94.4966 121.486 95.7227C119.721 97.5619 118.453 99.7417 118.193 101.41C118.159 101.604 118.171 101.615 118.25 101.592C118.295 101.581 118.906 101.41 119.608 101.218C121.962 100.571 129.454 98.368 129.533 98.2998C129.545 98.2885 129.364 97.9025 129.137 97.437C128.322 95.7569 128.051 94.5307 128.141 92.8732C128.164 92.4987 128.22 91.9537 128.266 91.6585C128.334 91.2498 128.345 91.1589 128.3 91.1589ZM156.367 87.7987L156.186 87.935C155.96 88.1394 154.918 88.8886 154.228 89.3541C152.383 90.5915 150.256 91.8403 148.037 92.9982C147.483 93.2934 147.007 93.5432 146.996 93.5545C146.951 93.5999 148.547 94.5877 149.644 95.1895C151.308 96.1089 153.153 96.8922 154.851 97.4258C155.235 97.5395 155.564 97.6303 155.564 97.6303C155.575 97.6187 155.631 97.2556 155.699 96.8129C156.096 94.2811 156.367 90.8072 156.367 88.2755V87.7987ZM136.824 87.0829L136.186 87.3638C134.149 88.2609 132.223 89.1647 130.383 90.086C130.307 90.1868 130.275 90.3546 130.19 90.7618C129.997 91.7153 129.963 93.2592 130.133 94.1448C130.303 95.0417 130.62 96.0181 131.005 96.7788C131.186 97.1306 131.208 97.1534 131.265 97.0739C131.299 97.0285 131.559 96.6197 131.831 96.177C133.438 93.6114 134.638 91.4996 135.735 89.354C136.22 88.4003 136.714 87.3717 136.824 87.0829ZM139.154 86.0941C139.007 86.155 138.862 86.2159 138.716 86.2768C138.697 86.3097 138.681 86.3506 138.667 86.4023C138.633 86.5158 138.44 87.0152 138.248 87.5148C137.116 90.3984 135.102 94.474 133.777 96.5517C133.483 97.017 133.449 97.0739 133.551 97.0397C134.188 96.8298 134.826 96.6216 135.464 96.4153C138.135 95.5525 140.466 94.7351 142.605 93.9178C144.45 93.2138 144.427 93.2253 144.359 93.1571C144.325 93.123 144.076 92.9073 143.805 92.6803C142.967 91.9651 141.96 90.8753 141.19 89.8535C140.489 88.9225 139.674 87.4694 139.312 86.4817C139.244 86.2774 139.164 86.0957 139.142 86.073L139.154 86.0941ZM148.245 82.5947L147.994 82.6814C147.978 82.8207 147.976 83.1038 147.97 83.7003C147.947 85.9936 147.517 88.8544 146.758 91.6814C146.668 92.0221 146.6 92.3057 146.623 92.3057C146.634 92.3057 147.098 92.1128 147.652 91.863C150.799 90.4666 153.368 89.0816 155.428 87.6739C156.39 87.0154 156.344 87.0836 155.926 86.902C154.568 86.3115 151.399 84.5404 149.067 83.0759C148.652 82.8183 148.398 82.6669 148.245 82.5947ZM146.524 83.2074L146.183 83.3349L145.355 83.6436C143.606 84.3021 141.934 84.9561 140.33 85.6099C140.398 85.848 140.729 86.6452 140.953 87.0834C141.462 88.0824 142.152 89.1041 143.035 90.1259C143.544 90.7163 145.095 92.2375 145.14 92.1808C145.163 92.1582 145.276 91.806 145.401 91.3863C145.921 89.6491 146.238 88.1052 146.442 86.4476C146.525 85.8115 146.57 83.6132 146.524 83.2074ZM142.345 78.3758L142.322 78.3758C142.3 78.3871 142.085 78.6483 141.847 78.9322C139.651 81.6341 136.72 84.3361 133.336 86.7996C132.906 87.1175 132.555 87.3787 132.555 87.39C132.555 87.4013 133.008 87.1855 133.562 86.9019C134.117 86.6293 134.966 86.2207 135.452 85.9935C137.184 85.199 139.742 84.1317 142.515 83.0533L144.065 82.4516L144.043 82.2244C143.918 81.18 143.42 79.8856 142.775 78.9208C142.469 78.4666 142.401 78.3646 142.345 78.3758ZM140.591 78.8073C140.545 78.7618 136.709 81.3729 135.045 82.5763C134.423 83.0193 134.343 83.0988 133.913 83.655C133.268 84.495 132.702 85.1761 131.955 85.9822C130.778 87.2651 130.676 87.3787 130.756 87.3333C130.79 87.3105 131.095 87.1175 131.435 86.9019C134.117 85.199 136.279 83.4506 138.463 81.2139C139.346 80.3171 140.636 78.8527 140.591 78.8073ZM155.763 80.1424L155.626 80.1857C153.478 80.8437 151.402 81.5123 149.459 82.1752C149.823 82.4612 151.95 83.876 153.074 84.586L153.273 84.7104C154.553 85.5085 156.202 86.4818 156.288 86.4818C156.31 86.4818 156.322 86.1753 156.299 85.7099C156.219 83.7497 155.923 80.7737 155.763 80.1424ZM152.836 71.8594C152.802 71.8367 150.607 72.9492 149.203 73.6985C147.121 74.8223 143.827 76.7069 143.612 76.8999C143.556 76.9566 143.601 77.0815 143.861 77.6038C144.473 78.8525 144.823 80.3169 144.823 81.6908C144.823 81.9519 144.835 82.1221 144.869 82.1108C144.891 82.0994 145.378 81.5432 145.944 80.8732C147.302 79.2613 149.271 76.7864 150.38 75.3105C151.308 74.073 152.859 71.882 152.836 71.8594ZM155.202 71.2691L154.805 71.882C152.836 74.845 150.188 77.8878 147.2 80.6462C146.157 81.6113 146.093 81.6674 146.139 81.6686L146.159 81.6681C146.193 81.6681 146.634 81.5091 147.155 81.3162C151.829 79.5905 155.835 78.3076 161.019 76.866L161.935 76.6049L161.8 76.4572C161.55 76.1848 160.306 75.0607 159.661 74.5272C158.517 73.5622 157.023 72.4611 155.756 71.6322L155.202 71.2691ZM138.531 75.3788C138.508 75.3788 138.395 75.6285 138.304 75.9578C138.055 76.7184 137.705 77.5927 137.354 78.3305C136.958 79.1592 136.584 79.8063 135.837 80.953C135.724 81.1232 135.758 81.1005 136.754 80.3058C137.705 79.5452 139.334 78.3076 140.409 77.5356C140.794 77.252 141.088 77.0135 141.066 76.9909C140.489 76.5139 139.844 76.0712 139.119 75.6739C138.825 75.5149 138.565 75.3788 138.531 75.3788ZM172.008 64.4688C171.985 64.446 170.525 64.8661 169.156 65.2974C166.541 66.1035 163.056 67.3523 160.498 68.3968C159.038 68.987 157.114 69.816 157.114 69.8499C157.114 69.8612 157.216 69.9521 157.34 70.0428C157.465 70.1337 157.838 70.4402 158.178 70.7241C159.977 72.2226 161.494 73.8915 162.762 75.7988C162.92 76.0485 163.067 76.2528 163.078 76.2528C163.09 76.2528 163.463 75.7761 163.916 75.2085C164.357 74.6409 165.693 72.9492 166.881 71.4507C169.133 68.6126 170.129 67.3181 170.808 66.3418C171.284 65.6721 172.03 64.4914 172.008 64.4688ZM172.879 64.6957L172.867 64.7189C172.811 64.826 172.604 65.2623 172.37 65.7628C170.514 69.5093 168.941 71.6096 165.501 74.9359C164.946 75.4694 164.505 75.9121 164.527 75.9121C164.55 75.9121 164.901 75.8326 165.297 75.7419C171.159 74.3228 177.259 73.3126 182.024 72.9492C182.635 72.9038 183.156 72.8584 183.156 72.8584C183.178 72.8471 181.696 71.3032 181.096 70.7127C178.968 68.6238 176.275 66.5916 173.524 65.0135C173.196 64.8207 172.924 64.6845 172.879 64.6957ZM146.204 67.5567C146.17 67.5226 143.929 69.3277 142.865 70.2473C141.383 71.5188 139.447 73.2785 139.447 73.3693C139.447 73.3918 139.685 73.5282 139.991 73.687C140.76 74.0845 141.36 74.5272 142.096 75.2425L142.73 75.8554L143.012 75.4013C143.16 75.1402 143.431 74.6747 143.612 74.357C144.371 72.9946 145.151 71.1896 145.616 69.7477C145.853 68.9871 146.238 67.5908 146.204 67.5567ZM147.675 67.2843C147.641 67.2843 147.596 67.3977 147.551 67.568C147.087 69.7364 146.272 71.9616 145.253 73.8233C144.948 74.3795 144.936 74.4252 144.982 74.4252C144.993 74.4252 145.446 74.1526 145.989 73.8233C147.89 72.6653 149.712 71.655 151.84 70.5878C152.508 70.2585 153.051 69.9747 153.04 69.9634C152.961 69.8954 151.433 69.0778 150.414 68.5671C149.305 68.011 147.834 67.3182 147.675 67.2843ZM138.973 64.433L138.95 64.4347C138.938 64.446 138.972 64.7184 139.006 65.0363C139.368 67.5226 139.425 69.9747 139.165 71.882C139.153 71.9728 139.165 72.0411 139.187 72.0411C139.21 72.0411 139.64 71.6438 140.149 71.1554C141.858 69.4979 143.284 68.1925 144.767 66.955C145.129 66.637 145.434 66.3759 145.434 66.3646C145.434 66.2964 142.696 65.3769 141.405 65.0135C140.557 64.7753 138.983 64.4006 138.95 64.4347L138.973 64.433ZM158.597 59.5757C158.551 59.5302 156.062 60.9154 154.534 61.8462C152.61 63.0042 148.965 65.4223 149.045 65.4905C149.056 65.5131 149.452 65.6721 149.905 65.865C151.535 66.5463 153.029 67.2728 154.341 68.0448C154.692 68.2491 154.998 68.4195 155.02 68.4082C155.043 68.3969 155.258 68.0563 155.496 67.6362C156.843 65.275 157.94 62.7658 158.348 61.0743C158.483 60.5294 158.631 59.6098 158.597 59.5757ZM159.457 59.7119C159.423 59.7119 159.389 59.8821 159.377 60.0978C159.185 62.3912 158.404 65.0818 157.193 67.6589C157.046 67.9768 156.933 68.2379 156.956 68.2379C156.978 68.2379 157.272 68.1244 157.601 67.9881C161.618 66.3534 165.783 65.059 170.65 63.9352L171.227 63.7991L170.401 63.4243C168.409 62.5161 165.353 61.3922 162.693 60.5975C161.618 60.2796 159.559 59.7119 159.457 59.7119ZM145.785 57.0781C145.683 57.044 142.582 59.4507 141.44 60.4613C140.84 60.9948 139.436 62.4025 139.436 62.4707C139.436 62.4934 140.217 62.7318 141.179 62.9929C142.865 63.4696 144.835 64.0487 146.046 64.4347L146.634 64.6276L146.668 64.5142C146.691 64.4573 146.713 64.0146 146.736 63.5378C146.804 61.8236 146.611 59.9844 146.193 58.3382C145.966 57.4868 145.853 57.1008 145.785 57.0781ZM146.585 57.1909L146.566 57.1915C146.555 57.203 146.623 57.3733 146.702 57.555C147.494 59.3941 147.924 61.5738 147.924 63.7308C147.924 64.1282 147.936 64.4573 147.947 64.4573C147.958 64.4573 148.445 64.1395 149.022 63.7535C151.229 62.2775 153.447 61.0629 156.435 59.7119C157.193 59.3713 157.431 59.2351 157.363 59.2125C157.227 59.1556 154.941 58.6787 153.368 58.3723C151.252 57.9635 146.6 57.1577 146.566 57.1915L146.585 57.1909ZM135.984 55.2049C135.981 55.2049 135.978 55.2062 135.976 55.207C136.002 55.2848 136.093 55.4919 136.199 55.7157C136.969 57.3617 137.818 59.7004 138.225 61.2785C138.282 61.517 138.35 61.71 138.35 61.71C138.35 61.71 138.633 61.4375 138.961 61.1082C139.776 60.2909 140.907 59.3827 142.164 58.5426C142.662 58.2019 144.167 57.3051 144.54 57.1122C144.71 57.0213 144.846 56.942 144.846 56.9191C144.846 56.8966 144.552 56.8283 144.178 56.7716C141.971 56.3969 138.519 55.7385 136.595 55.3071C136.29 55.239 136.041 55.2049 135.984 55.2049ZM130.416 53.661C130.416 53.6723 130.654 53.8767 130.971 54.1035C133.393 56.0108 135.486 58.3835 136.811 60.7222C136.958 60.9833 137.082 61.1764 137.094 61.1649C137.105 61.1649 136.992 60.7109 136.845 60.1772C136.46 58.7694 135.317 55.1027 135.237 55.0232C135.226 55.0232 134.66 54.8642 133.981 54.694C133.482 54.5662 132.984 54.4338 132.487 54.2967C131.831 54.115 131.276 53.9446 130.846 53.7972C130.608 53.7177 130.427 53.6498 130.416 53.661ZM145.706 51.7423C145.695 51.731 145.672 51.7423 145.661 51.765C145.616 51.7991 145.378 52.0034 145.118 52.2192C144.054 53.116 142.854 53.9562 141.666 54.6146C141.519 54.6941 141.405 54.7736 141.405 54.7849L141.996 54.8665C143.757 55.158 145.642 55.4623 147.869 55.8123C147.865 55.796 147.842 55.7704 147.822 55.7384C147.528 55.2957 146.328 53.0023 145.944 52.1509C145.808 51.8444 145.751 51.7423 145.706 51.7423ZM132.6 48.6657L133.189 49.1992C133.789 49.7669 135.351 51.2655 137.343 53.2067L138.419 54.2641C138.783 54.3263 139.145 54.3881 139.509 54.4497C139.619 54.4028 139.895 54.246 140.194 54.0583C141.417 53.2977 143.182 52.3099 144.789 51.5039C145.197 51.311 145.513 51.1407 145.502 51.1293C145.491 51.1293 145.174 51.0952 144.801 51.0611C141.473 50.7887 135.441 49.6307 133.042 48.8131L132.6 48.6657ZM132.148 49.0176L132.001 49.1199C130.371 50.2777 129.409 51.4129 129.398 52.1736L129.398 52.2959C129.515 52.3395 129.629 52.3815 129.737 52.4236C130.756 52.7755 132.057 53.082 132.736 53.2297C133.655 53.4283 134.901 53.6548 136.02 53.8507C135.982 53.7932 135.847 53.6287 135.69 53.4337C135.498 53.1954 134.615 52.117 133.744 51.0157L132.148 49.0176ZM143.522 43.5797C143.194 43.6364 138.938 45.4188 137.388 46.1342C136.177 46.7017 133.427 48.1436 133.472 48.189C133.472 48.2003 133.981 48.2797 134.581 48.3593C138.327 48.8815 143.499 49.7784 144.654 50.0961C145.14 50.2438 145.14 50.3119 144.722 49.063C144.167 47.4055 143.816 45.8731 143.624 44.2835C143.578 43.909 143.533 43.591 143.522 43.5797Z" fill="#47237E"/>
</svg>
