<svg width="300" height="161" viewBox="0 0 300 161" fill="none" xmlns="http://www.w3.org/2000/svg">
<path d="M138.056 94.5787C138.09 94.5787 138.056 109.781 138.056 109.848C138.09 113.607 133.395 114.398 131.246 114.464H117.624V111.562L118.02 111.563C120.256 111.568 131.216 111.592 131.246 111.562C134.023 111.299 133.693 109.913 133.693 109.451V108.33H124.534C120.269 108.264 117.558 106.417 117.525 104.274C117.525 104.077 117.624 94.7102 117.525 94.6112H121.823V103.977C121.79 104.505 121.988 105.692 124.369 105.725C125.559 105.758 133.659 105.725 133.725 105.725V94.5787H138.056ZM178.128 88.642C178.525 88.642 178.889 88.642 179.318 88.7085C182.922 89.203 184.774 90.7862 184.774 93.3916V103.615C184.774 105.725 183.98 106.846 182.194 107.572L186.46 111.398H181.434L177.996 108.33L174.524 108.528H169.929C169.135 108.528 168.308 108.429 167.383 108.165C164.639 107.44 163.316 105.989 163.316 103.615V93.3916C163.316 90.7862 165.135 89.203 168.771 88.7085C169.135 88.642 169.565 88.642 169.929 88.642H178.128ZM111.904 88.6095C113.184 89.0143 113.845 89.7429 113.915 91.2118L113.921 91.4788V108.463H109.623V91.4455L102.944 106.286C102.151 108.066 101.093 108.693 98.9767 108.693C96.9572 108.693 95.9013 108.122 95.1192 106.521L95.0093 106.286L88.3312 91.4455V108.463H84V91.4788C84 89.8298 84.661 89.0382 86.0497 88.6095C89.2136 87.6213 91.4199 88.42 92.4297 90.4706L92.5298 90.6872L98.8781 105.297L105.424 90.6872C106.416 88.4772 108.631 87.5872 111.904 88.6095ZM160.737 88.5762V91.4455H148.405C148.273 91.4455 148.108 91.4788 147.976 91.4788C146.454 91.6103 145.992 91.8742 145.793 92.7648C145.771 92.8526 145.764 92.9258 145.761 93.0041L145.76 93.1278V95.0732C145.76 95.2047 145.76 95.337 145.793 95.4686C145.981 96.559 146.728 97.0903 148.287 97.1459L148.571 97.1509H153.794C155.083 97.1509 156.406 97.3489 157.497 97.7776C159.408 98.4961 160.458 99.5993 160.563 100.751L160.572 100.943V104.109C160.572 105.626 159.646 106.78 157.795 107.638C156.783 108.113 155.53 108.401 154.229 108.454L153.794 108.463H141.396V105.593H153.298C153.464 105.593 153.596 105.56 153.761 105.56C154.588 105.494 155.216 105.297 155.58 104.966C155.956 104.678 156.154 104.339 156.198 104.06L156.208 103.944V101.438C156.208 101.141 156.108 100.91 155.877 100.646C155.447 100.152 154.885 99.9211 153.497 99.7888C153.364 99.7563 153.199 99.7563 153.034 99.7563H148.571C148.141 99.7563 147.744 99.723 147.314 99.723C143.767 99.3408 141.578 97.7871 141.436 95.926L141.429 95.7325V93.2261C141.429 91.0168 142.553 89.764 145.132 88.9391C145.899 88.725 146.724 88.5956 148.241 88.5782L148.603 88.5762H160.737ZM191.783 88.5762V103.45C191.783 104.906 192.667 105.542 194.989 105.59L195.287 105.593H206.594V108.463H195.353C194.957 108.463 194.527 108.429 194.131 108.396C189.802 108.076 187.619 106.516 187.49 103.716L187.484 103.45V88.5762H191.783ZM210.066 105.593V106.088H209.206V108.463H208.578V106.088H207.719V105.593H210.066ZM211.587 105.593L212.348 107.572L213.108 105.593H213.968V108.463H213.405V106.286H213.372L212.546 108.463H212.116L211.289 106.286V108.463H210.694V105.593H211.587ZM177.665 91.5113H171.119C169.201 91.5113 167.978 92.3362 167.978 93.6222V103.351C167.978 103.516 168.011 103.648 168.044 103.813C168.308 105 169.432 105.659 171.119 105.659H175.053L171.45 102.428H176.475L179.616 105.23C180.178 104.934 180.574 104.472 180.707 103.878C180.74 103.714 180.74 103.581 180.74 103.45V93.6222C180.74 93.5232 180.74 93.3916 180.707 93.2593C180.442 92.1381 179.318 91.5113 177.665 91.5113ZM173.962 49.0689C174.458 49.3653 174.987 49.9921 175.483 50.1902C176.31 50.256 177.136 50.2885 177.963 50.355C179.517 50.7179 180.972 51.0143 182.194 51.7069C187.914 55.0374 191.584 58.4345 195.023 64.0408C195.717 65.2278 196.114 66.5139 196.676 67.8C197.502 69.7129 198.428 71.6915 199.387 73.5386C199.85 74.396 200.148 75.3524 200.743 76.0775C201.007 76.4079 201.668 76.5062 202.032 76.671C203.156 77.232 204.445 77.6607 205.504 78.3533C207.388 79.5403 209.24 80.9587 210.926 82.4096C211.492 82.862 211.865 83.5321 212.335 84.0881L212.579 84.355V84.6522L210.992 85.1134C209.835 85.4105 208.809 85.3447 207.686 85.6411C207.024 85.8067 206.165 86.0698 205.437 86.1689C205.437 86.2021 205.47 86.2021 205.504 86.2346C205.933 87.4224 208.248 88.4446 209.272 89.1705C210.419 89.9911 211.513 90.9682 212.415 92.0551L212.744 92.4677L213.736 93.4574C213.895 93.7211 213.968 94.0482 214.11 94.3207L214.232 94.5129V94.5787C213.802 94.4139 213.538 94.0177 213.207 93.7538C212.48 93.2261 211.752 92.6325 210.992 92.1713C209.768 91.3797 208.314 90.951 206.992 90.1594C206.264 89.6975 205.57 89.1705 204.909 88.642C204.28 88.1808 203.586 87.2901 203.156 86.6308C202.958 86.2679 202.892 85.8392 202.627 85.5753C202.726 84.9485 203.487 84.9485 203.982 84.7512C205.735 83.9929 207.752 83.7615 210.397 83.8273C210.331 83.1347 208.677 82.3106 208.148 81.9477C207.058 81.1893 205.966 80.3652 204.809 79.7052C204.214 79.3422 203.189 79.0459 202.561 78.782C201.668 78.4191 199.684 78.0562 199.155 77.3636C198.196 76.0775 197.502 74.495 196.841 72.9118C196.147 71.3619 195.254 69.7129 194.56 68.0971C194.229 67.3055 194.064 66.6129 193.667 65.8546C191.221 61.2047 187.683 57.3132 183.319 54.5762C181.897 53.6523 180.31 52.8282 178.558 52.3004C177.708 52.0457 176.712 52.131 175.778 52.0149L175.318 51.9375H174.657C174.062 51.7727 173.565 51.1466 173.069 50.8162C172.045 50.1237 171.02 49.6625 169.829 49.1347C169.367 48.9699 168.143 48.5079 167.713 48.8376C167.449 48.9366 167.349 49.0357 167.25 49.2995C167.019 49.695 167.25 50.2885 167.415 50.6514C167.912 51.7069 168.606 52.3337 169.234 53.2236C169.796 53.9827 170.457 54.8726 170.887 55.7632C171.747 57.6096 172.111 59.6548 172.904 61.5011C173.235 62.1937 173.664 62.9853 174.128 63.5788C174.491 64.074 175.119 64.4695 175.318 65.0962C175.747 65.7555 174.723 67.9323 174.491 68.6249C173.631 71.3286 173.83 75.0885 174.789 77.4301C175.186 78.3533 175.55 79.4413 176.607 79.7052C176.673 79.6394 176.64 79.6726 176.772 79.6061C176.971 77.8255 177.07 76.0775 177.665 74.6599C178.062 73.7692 178.756 73.1424 179.252 72.3841C179.616 72.6154 179.616 73.2089 179.781 73.6044C180.211 74.6266 180.674 75.7479 181.203 76.7701C182.327 78.881 183.55 80.9255 184.906 82.7725C185.401 83.4319 186.063 84.1577 186.658 84.7512C186.843 84.9357 187.071 85.0568 187.256 85.25L187.386 85.4105H187.484V85.4763C186.46 85.1466 185.831 84.1244 185.071 83.5309C183.55 82.4096 181.765 80.6949 180.773 79.0784C180.464 78.4851 180.156 77.8915 179.857 77.2881L179.418 76.3746V76.3089C179.219 76.5727 179.285 76.8366 179.186 77.1988C178.756 78.881 179.086 80.7274 177.599 81.3542C175.88 82.0467 174.657 80.2329 174.128 79.4088C172.408 76.6385 171.979 72.0544 173.135 68.3277C173.4 67.5036 173.433 66.5139 173.896 65.8546C173.83 65.2611 173.334 65.0962 173.069 64.7333C172.606 64.1065 172.21 63.3807 171.846 62.6889C171.152 61.3363 170.689 59.7205 170.127 58.2364C169.896 57.6429 169.862 57.0826 169.598 56.5216C169.201 55.6642 168.507 54.8068 167.945 54.0485C167.152 52.9597 164.936 50.8495 165.829 48.706C167.218 45.2765 172.078 47.8812 173.962 49.0689ZM176.673 55.1697C176.971 55.4336 177.367 55.5984 177.599 55.9281C177.764 56.1587 177.797 56.39 177.963 56.5874C177.963 57.3298 177.802 57.8315 177.432 58.1405L177.301 58.2364L177.202 58.3354C176.971 57.8077 176.706 57.2799 176.475 56.7522C176.211 56.3832 175.861 56.0772 175.597 55.6993L175.417 55.4003H175.318V55.3345C175.747 55.2355 176.145 55.1697 176.673 55.1697Z" fill="#47237E"/>
</svg>
