<svg width="300" height="161" viewBox="0 0 300 161" fill="none" xmlns="http://www.w3.org/2000/svg">
<path d="M212.55 56C195.654 85.698 185.443 103.556 175.316 103.556C174.774 103.556 174.271 103.467 173.789 103.292L173.993 103.248L174.075 103.227L173.986 103.249L173.91 103.265H173.887L173.779 103.288C172.405 102.791 171.25 101.619 170.257 99.951C170.265 99.9656 170.264 99.9671 170.263 99.9685L170.256 99.99C171.249 101.657 172.402 102.828 173.781 103.324L173.76 103.315L173.793 103.31C174.275 103.485 174.778 103.574 175.32 103.574L171.471 103.59L171.468 103.572H161C161.449 103.572 161.881 103.562 162.297 103.542L161.66 103.565L160.999 103.572C160.265 103.572 159.565 103.502 158.89 103.366C158.716 103.331 158.544 103.293 158.373 103.249L157.868 103.108C158.201 103.211 158.541 103.298 158.889 103.368C159.564 103.503 160.265 103.573 161 103.573H150.575V103.572C151.324 103.572 152.079 103.518 152.837 103.41L152.08 103.499C151.575 103.547 151.073 103.571 150.574 103.571C137.448 103.571 135.748 79.477 131.259 65.97C128.105 69.052 124.932 72.853 121.75 77.266C123.35 72.319 124.674 68.528 125.97 65.645L125.947 65.6963C125.945 65.6983 125.943 65.7002 125.941 65.7022C124.652 68.5796 123.338 72.3483 121.747 77.261C120.443 81.287 118.952 86.091 117.138 91.792C114.751 99.314 109.939 104.499 99.4146 104.789L100.077 104.762H100.052L100.019 104.765L99.872 104.78H99.8476L99.4665 104.805H97.7154L93.8994 104.821H93.3435C93.8648 100.873 94.6128 97.109 95.5366 93.557C105.936 73.838 110.863 61.358 119.56 57.981L119.615 57.955L119.778 57.895L119.852 57.865L120.027 57.805L120.415 57.671L120.476 57.655L120.641 57.606L120.717 57.585L120.886 57.536L120.95 57.518L121.508 57.376L121.583 57.358L121.743 57.327L121.825 57.305L121.99 57.273H122.028L122.367 57.215L122.434 57.199L122.59 57.172L122.678 57.157L122.787 57.1417L122.75 57.1396L122.679 57.15L122.59 57.165L122.434 57.192H122.367L122.028 57.254H121.99L121.826 57.284L121.747 57.308L121.584 57.339L121.508 57.356L120.951 57.498L120.887 57.515L120.72 57.564L120.643 57.588L120.477 57.637L120.419 57.652L120.029 57.786H120.02L119.845 57.848L119.802 57.865L119.769 57.881L119.606 57.943H119.592L119.569 57.958L119.55 57.974V57.971L119.088 58.1617C110.675 61.798 105.74 74.1821 95.5264 93.549C96.3092 90.5335 97.2201 87.6695 98.2345 84.9706L97.8994 85.8745C97.0184 88.3062 96.2213 90.8673 95.5254 93.548C93.6646 97.078 91.6301 100.839 89.3648 104.814H88C95.0772 77.848 110.791 57.026 122.196 57.026C122.564 57.026 122.924 57.048 123.274 57.08L123.079 57.0958H123.277L123.276 57.088L123.313 57.0958H123.535L123.705 57.0856L124.126 57.075C124.355 57.075 124.581 57.0816 124.804 57.0946L137.828 57.0973V57.1023L141.985 57.103C142.48 57.0571 142.972 57.034 143.46 57.034C143.66 57.034 143.858 57.0397 144.053 57.0509L143.459 57.033L148.657 57.052C147.84 57.052 147.017 57.1163 146.195 57.248C147.017 57.119 147.84 57.054 148.657 57.054C161.874 57.054 163.507 81.494 168.068 94.937C166.968 95.972 165.871 96.92 164.775 97.777L165.257 97.395C166.194 96.6402 167.132 95.8193 168.071 94.935L168.071 94.9375C168.081 94.9237 168.082 94.9224 168.083 94.9211C170.433 89.6867 172.873 81.4727 176.9 68.803C179.202 61.544 183.779 56.642 193.572 56.065L193.552 56.0667L193.562 56.052L194.548 56.005H200.768L200.763 56.008H204.677C190.665 80.638 186.158 97.126 177.23 102.034L177.244 102.025L177.26 102.017L177.646 101.797C186.168 96.6967 190.74 80.7655 204.041 57.136L204.681 56.005H205.917C205.827 56.3464 205.735 56.6869 205.642 57.0263L205.917 56.005L205.916 56H212.55ZM95.5264 93.55C94.6016 97.105 93.8577 100.868 93.3323 104.816H89.3648C91.6311 100.841 93.6657 97.08 95.5264 93.55Z" fill="#47237E"/>
</svg>
