<svg width="300" height="161" viewBox="0 0 300 161" fill="none" xmlns="http://www.w3.org/2000/svg">
<path d="M150.96 87.9407L161.151 93.7391C161.815 94.1155 162.224 94.8186 162.224 95.5715V107.143C162.224 107.896 161.815 108.599 161.151 108.976L150.96 114.774C150.628 114.925 150.245 115 149.887 115C149.504 115 149.146 114.9 148.814 114.724L145.417 112.741C144.906 112.465 145.162 112.364 145.315 112.314C146.004 112.088 146.132 112.038 146.847 111.637C146.924 111.586 147.026 111.611 147.103 111.662L149.708 113.193C149.81 113.243 149.938 113.243 150.015 113.193L160.206 107.394C160.308 107.344 160.359 107.244 160.359 107.118V95.5466C160.359 95.4208 160.308 95.3207 160.206 95.2703L150.015 89.497C149.912 89.4466 149.785 89.4466 149.708 89.497L139.517 95.2703C139.415 95.3205 139.363 95.446 139.363 95.5463V107.118C139.363 107.219 139.415 107.344 139.517 107.394L142.301 108.976C143.808 109.729 144.753 108.85 144.753 107.972V96.5504C144.753 96.3999 144.881 96.2492 145.059 96.2492H146.362C146.515 96.2492 146.669 96.3747 146.669 96.5504V107.972C146.669 109.955 145.57 111.109 143.655 111.109C143.067 111.109 142.607 111.109 141.305 110.482L138.623 108.976C137.959 108.599 137.55 107.896 137.55 107.143V95.5715C137.55 94.8186 137.959 94.1155 138.623 93.7391L148.814 87.9407C149.453 87.5893 150.321 87.5893 150.96 87.9407ZM152.646 95.8978C155.915 95.8978 157.524 97.0024 157.729 99.4118C157.729 99.4874 157.703 99.5626 157.652 99.6379C157.601 99.6881 157.524 99.7383 157.448 99.7383H156.119C155.992 99.7383 155.864 99.6379 155.838 99.5124C155.532 98.132 154.74 97.68 152.646 97.68C150.296 97.68 150.015 98.4834 150.015 99.0856C150.015 99.8136 150.347 100.04 153.514 100.441C156.656 100.843 158.137 101.42 158.137 103.579C158.112 105.788 156.273 107.043 153.029 107.043C148.559 107.043 147.639 105.035 147.639 103.328C147.639 103.177 147.767 103.027 147.946 103.027H149.274C149.427 103.027 149.555 103.127 149.555 103.278C149.759 104.608 150.347 105.261 153.054 105.261C155.2 105.261 156.12 104.784 156.12 103.654C156.12 103.002 155.864 102.525 152.518 102.198C149.734 101.922 147.997 101.32 147.997 99.136C147.997 97.1027 149.734 95.8978 152.646 95.8978ZM170.193 47.0272L170.321 47.0754L176.783 50.6147C177.134 50.8085 177.371 51.1496 177.432 51.5434L177.447 51.7443V82.3429C177.447 82.7303 177.26 83.0992 176.949 83.3389L176.783 83.4475L165.953 89.5974C165.607 89.7911 165.194 89.8187 164.829 89.6804L164.65 89.5974L153.82 83.4475C153.47 83.2539 153.232 82.9125 153.172 82.5345L153.156 82.3429V70.0684C153.156 69.6811 153.344 69.3123 153.655 69.0725L153.82 68.964L164.65 62.8141C164.997 62.6204 165.41 62.5927 165.775 62.7311L165.953 62.8141L168.661 64.3453C168.814 64.4204 168.967 64.4204 169.12 64.3453C169.235 64.2698 169.307 64.1663 169.336 64.0558L169.35 63.9437V47.6275C169.35 47.4016 169.478 47.201 169.682 47.0754C169.825 46.995 170.018 46.9789 170.193 47.0272ZM135.072 62.7137C135.476 62.4879 135.971 62.4879 136.375 62.7137L147.129 68.8132C147.511 69.0391 147.767 69.4659 147.767 69.9176V82.142C147.767 82.5937 147.537 83.0205 147.129 83.2464L136.375 89.3461C135.971 89.572 135.476 89.572 135.072 89.3461L124.319 83.2464C123.936 83.0205 123.68 82.5937 123.68 82.142V69.9174C123.68 69.4657 123.91 69.0389 124.319 68.813L135.072 62.7137ZM194.305 62.6636C194.709 62.4377 195.204 62.4377 195.608 62.6636L206.361 68.7883C206.745 69.0141 207 69.4409 207 69.8926V72.8796C207 73.3316 206.77 73.7584 206.361 73.9842L199.925 77.6742C199.72 77.7998 199.465 77.7998 199.26 77.6742C199.056 77.5739 198.929 77.348 198.929 77.1222V74.11C198.929 73.8839 198.801 73.6832 198.596 73.5577L195.199 71.6499C194.996 71.5244 194.738 71.5244 194.535 71.6499L191.138 73.5577C190.934 73.6582 190.806 73.8841 190.806 74.11V77.9505C190.806 78.1764 190.934 78.3773 191.138 78.5026L202.019 84.6525C202.223 84.753 202.351 84.9789 202.351 85.2048C202.351 85.4306 202.223 85.6565 202.019 85.7571L195.506 89.3211C195.123 89.547 194.638 89.547 194.229 89.3211L183.475 83.2968C183.067 83.0709 182.811 82.6441 182.811 82.1924V69.9178C182.811 69.4659 183.067 69.0391 183.475 68.8132L194.305 62.6636ZM106.184 62.3369C106.388 62.3621 106.592 62.4123 106.771 62.5129L117.601 68.6375C118.01 68.8634 118.265 69.2904 118.265 69.7421L118.291 86.2086C118.291 86.4345 118.163 86.6604 117.959 86.7609C117.754 86.8864 117.499 86.8864 117.295 86.7609L110.858 83.1463C110.449 82.9204 110.194 82.4936 110.194 82.0419V74.3356C110.194 73.8837 109.939 73.4571 109.53 73.2312L106.797 71.6749C106.618 71.5494 106.388 71.499 106.158 71.499C105.928 71.499 105.699 71.5494 105.494 71.6749L102.761 73.2312C102.352 73.4571 102.097 73.8839 102.097 74.3356V82.0419C102.097 82.4936 101.842 82.9204 101.433 83.1463L94.9963 86.7609C94.8173 86.8864 94.562 86.8864 94.3576 86.7609C94.1534 86.6604 94.0256 86.4345 94.0256 86.2086L94 69.7421C94 69.2902 94.2553 68.8634 94.6641 68.6375L105.494 62.5129C105.673 62.4123 105.877 62.3369 106.082 62.3369H106.184ZM165.245 71.6664L165.136 71.6999L161.432 73.8085C161.355 73.8462 161.308 73.912 161.288 73.9955L161.279 74.0846V78.3017C161.279 78.3769 161.308 78.4664 161.365 78.5276L161.432 78.5777L165.136 80.6862C165.206 80.7197 165.283 80.7309 165.359 80.7197L165.468 80.6862L169.171 78.5777C169.248 78.5401 169.296 78.4743 169.315 78.3907L169.325 78.3017V74.0846C169.325 74.0093 169.296 73.9198 169.239 73.8586L169.171 73.8085L165.468 71.6999C165.398 71.6664 165.32 71.6552 165.245 71.6664ZM195.046 73.407L197.115 74.5867C197.192 74.6367 197.243 74.712 197.243 74.8126V77.1721C197.243 77.2724 197.192 77.3478 197.115 77.398L195.046 78.5777C194.969 78.6279 194.868 78.6279 194.791 78.5777L192.722 77.398C192.645 77.3478 192.594 77.2724 192.594 77.1721V74.8126C192.594 74.712 192.645 74.6367 192.722 74.5867L194.791 73.407C194.868 73.3568 194.969 73.3568 195.046 73.407Z" fill="#47237E"/>
</svg>
