<svg width="300" height="161" viewBox="0 0 300 161" fill="none" xmlns="http://www.w3.org/2000/svg">
<g clip-path="url(#clip0)">
<path d="M150.497 47C159.317 46.9922 167.776 50.5052 173.996 56.7594C180.32 62.9239 183.921 71.3578 184.001 80.1888C184.084 98.7053 169.196 113.812 150.681 114H150.409C132.407 114 117.141 98.7956 117.001 80.6799C116.938 71.8527 120.411 63.3677 126.646 57.1189C132.776 50.8403 141.115 47.2172 149.87 47.0091L150.497 47ZM150.514 48.7537C142.001 48.8036 133.863 52.2617 127.918 58.3552C122.004 64.2672 118.704 72.3007 118.754 80.6623C118.886 97.8311 133.354 112.229 150.4 112.229H150.628C168.186 112.07 182.316 97.7557 182.248 80.1976C182.168 71.8313 178.753 63.8428 172.76 58.0045C166.879 52.0716 158.868 48.7402 150.514 48.7537ZM129.277 70.7276V72.4813H126.751V88.5803H129.277V90.334L124.515 90.2989V70.7276H129.277ZM176.486 70.675V90.2989H171.725V88.5452H174.25V72.4287H171.725V70.675H176.486ZM155.468 75.1557V82.0741C155.468 85.0115 154.048 85.9936 151.961 85.9936C151.403 85.989 150.849 85.8942 150.321 85.713L150.558 84.1522C150.947 84.2737 151.352 84.3387 151.759 84.3451C152.864 84.3451 153.513 83.8365 153.513 81.9951L153.53 75.1557H155.468ZM167.911 74.9803C168.812 74.943 169.71 75.1047 170.541 75.4538L170.112 76.9971C169.452 76.7164 168.741 76.576 168.025 76.585C165.859 76.585 164.298 77.9441 164.298 80.5045C164.298 82.8369 165.675 84.3451 168.007 84.3451C168.731 84.3555 169.449 84.2214 170.12 83.9505L170.401 85.4762C169.529 85.8238 168.594 85.9851 167.657 85.9497C164.281 85.9497 162.229 83.8365 162.229 80.6009C162.148 79.0761 162.723 77.5895 163.809 76.5156C164.894 75.4418 166.387 74.8831 167.911 74.9803ZM135.73 74.9277C138.729 74.9277 140.676 77.3303 140.676 80.3204C140.676 83.8891 138.51 85.9234 135.573 85.9234C132.635 85.9234 130.68 83.6348 130.68 80.5045C130.68 77.2338 132.732 74.9277 135.73 74.9277ZM148.199 75.7344C148.902 76.1481 149.324 76.91 149.304 77.7249C149.28 78.7203 148.662 79.5965 147.75 79.9609L147.55 80.031C148.801 80.2854 149.699 81.3854 149.699 82.6615C149.712 83.5112 149.334 84.3197 148.673 84.8537C147.919 85.5201 146.665 85.8445 144.727 85.8445C143.93 85.8484 143.133 85.8016 142.342 85.7042L142.324 75.296C143.257 75.135 144.202 75.0558 145.148 75.0592C146.211 74.9554 147.279 75.1918 148.199 75.7344ZM145.218 80.9254H144.253V84.3889C144.594 84.4241 144.937 84.4387 145.279 84.4328C146.524 84.4328 147.629 83.9593 147.629 82.6791C147.629 81.3989 146.559 80.9254 145.218 80.9254ZM135.687 76.4973C133.74 76.4973 132.714 78.3299 132.714 80.522L132.732 80.4782C132.732 82.644 133.819 84.3626 135.687 84.3626C137.554 84.3626 138.624 82.6089 138.624 80.3993C138.624 78.3913 137.633 76.4973 135.687 76.4973ZM160.984 80.9166V82.2582H156.95V80.9166H160.984ZM145.349 76.5061C144.979 76.4934 144.609 76.5199 144.245 76.585L144.253 79.4961H145.244C146.586 79.4961 147.34 78.8648 147.34 77.9616C147.34 77.0585 146.586 76.5061 145.349 76.5061Z" fill="#47237E"/>
</g>
<defs>
<clipPath id="clip0">
<rect width="67" height="67" fill="white" transform="translate(117 47)"/>
</clipPath>
</defs>
</svg>
