<svg width="300" height="161" viewBox="0 0 300 161" fill="none" xmlns="http://www.w3.org/2000/svg">
<path d="M188.505 70.0038H192.162V87.5687H208.013L205.686 91H188.505V70.0038ZM159.795 91L146.271 70.9912C145.439 69.6924 143.223 69.6924 142.28 71.0434L128.868 91H133.302L137.348 84.971H145.994L148.267 81.5406H139.621L144.333 74.6295L155.363 91H159.795ZM168.024 70.0104C161.845 70.0104 157.778 74.7074 157.778 80.5019C157.778 86.2955 161.846 90.9943 168.024 90.9943L183.048 90.9772L185.4 87.5763H168.134C163.969 87.5763 161.532 84.4089 161.532 80.5019C161.532 76.5949 163.968 73.4275 168.134 73.4275H183.514L185.784 70L168.024 70.0104ZM74.2473 73.4275H90.0981C94.2648 73.4275 96.7011 76.5949 96.7011 80.5019C96.7011 84.4089 94.2659 87.5763 90.0981 87.5763H74.2473C70.0805 87.5763 67.6453 84.4089 67.6453 80.5019C67.6453 76.5949 70.0805 73.4275 74.2473 73.4275ZM74.2473 70.0104C68.0675 70.0104 64 74.7074 64 80.5019C64 86.2955 68.0675 90.9943 74.2473 90.9943H90.0981C96.2778 90.9943 100.345 86.2955 100.345 80.5019C100.345 74.7074 96.2778 70.0104 90.0981 70.0104H74.2473ZM211.921 82.1653C212.516 85.2701 214.795 87.5763 218.351 87.5763H235.616L233.263 90.9772L218.24 90.9943C212.06 90.9943 207.994 86.2955 207.994 80.5019C207.994 74.7074 212.061 70.0104 218.24 70.0104L236 70.0009L233.732 73.4285H218.352C214.845 73.4285 212.557 75.6958 211.922 78.7359H233.621L231.294 82.1663H211.921V82.1653ZM121.025 82.4692C124.649 82.4098 127.554 79.6383 127.554 76.2398C127.554 72.8413 124.649 70.0698 121.025 70.0104L102.375 70.0028V90.999H106.476V73.4285H121.025C122.681 73.4285 124.023 74.6872 124.023 76.2398C124.023 77.7925 122.681 79.0511 121.025 79.0511H109.358L122.52 90.9753H127.814L118.392 82.4768L121.025 82.4692Z" fill="#47237E"/>
</svg>
