<svg width="300" height="161" viewBox="0 0 300 161" fill="none" xmlns="http://www.w3.org/2000/svg">
<path d="M126.36 67.1046C133.412 67.5383 136.938 71.0065 136.938 77.0771C136.938 87.4828 128.564 93.5528 121.07 93.1191H113.138L111.375 102.224H103L110.052 67.1046H126.36ZM122.834 73.6083H117.104L114.901 86.6158H120.19C124.156 86.1821 127.682 84.8815 128.123 77.5103C128.123 74.909 125.919 73.6083 122.834 73.6083ZM135.299 93.1191L142.351 58H150.726L148.963 67.1046H156.896C163.948 67.5383 166.593 71.0065 165.712 75.3427L162.626 93.1191H153.811L156.897 77.0771C157.337 74.909 157.337 73.6083 154.252 73.6083H147.641L143.674 93.1191H135.299ZM185.421 67.1046C192.474 67.5383 196 71.0065 196 77.0771C196 87.4828 187.625 93.5528 180.133 93.1191H172.199L170.436 102.224H162.062L169.114 67.1046H185.421ZM181.896 73.6083H176.165L173.962 86.6158H179.251C183.218 86.1821 186.744 84.8815 187.184 77.5103C187.184 74.909 184.981 73.6083 181.896 73.6083Z" fill="#47237E"/>
</svg>
