<svg width="300" height="161" viewBox="0 0 300 161" fill="none" xmlns="http://www.w3.org/2000/svg">
<path d="M164.801 45.0007L165.326 45.002C172.266 45.085 178.018 47.7977 181.96 52.8472C183.45 54.755 184.725 58.9726 182.339 68.2307C180.864 73.9563 178.301 80.0387 175.149 85.3725C175.984 85.349 177.129 85.2276 178.671 84.9087C179.556 84.7258 180.303 84.6842 180.956 84.7819C182.341 84.9893 183.411 85.8534 183.82 87.0942C185.012 90.7122 179.948 93.392 178.368 94.127C176.368 95.0582 173.112 95.6243 170.449 95.5026L170.325 95.4943L169.847 95.4521L169.804 95.8156C169.784 95.9926 169.762 96.1783 169.739 96.3729C169.561 103.251 168.573 107.617 166.542 110.515C164.394 113.581 161.424 114.437 158.81 114.999C158.076 115.156 157.24 115.272 156.363 115.272C154.616 115.272 152.707 114.814 151.13 113.321C149.606 111.88 149.007 110.04 148.649 108.941C148.593 108.769 148.54 108.606 148.501 108.499C147.783 106.557 147.541 103.782 147.398 100.212C147.377 99.6845 147.361 99.12 147.345 98.5443C147.335 98.1893 147.324 97.7783 147.309 97.3481C144.896 98.4087 142.067 98.598 139.047 97.8413C138.209 97.6313 137.37 97.2769 136.684 96.8432C136.144 96.5013 135.737 96.1332 135.432 95.7628C133.025 97.7725 130.736 97.4778 129.476 97.0572C127.229 96.3056 125.226 94.213 123.355 90.6593C122.036 88.1532 120.761 84.8913 119.565 80.9632C117.484 74.1293 116.162 66.9232 116.044 64.5549C115.671 57.0953 117.684 51.7543 122.026 48.6803C125.611 46.1414 130.513 45.3615 136.595 46.3623C139.181 46.7878 141.42 47.4545 142.816 47.9274C145.336 46.4283 148.285 45.6989 151.623 45.7522C153.404 45.7811 155.101 45.9369 156.68 46.2161C158.375 45.6893 161.625 44.9566 165.326 45.002L164.801 45.0007ZM164.781 46.8694L164.353 46.8757C160.378 46.9669 157.126 47.9604 156.46 48.2538C154.957 47.8791 153.318 47.649 151.534 47.6197C148.262 47.5666 145.433 48.3517 143.092 49.9523C142.075 49.5728 139.446 48.6683 136.232 48.1492C130.674 47.2524 126.258 47.9319 123.106 50.1698C119.346 52.8403 117.61 57.6139 117.946 64.3576C118.059 66.6265 119.349 73.6062 121.385 80.2904C124.064 89.0881 126.976 94.0686 130.04 95.0932C130.399 95.213 130.812 95.2968 131.269 95.2968C132.386 95.2968 133.757 94.7918 135.183 93.0736C136.922 90.9824 138.721 88.942 140.577 86.9549C141.782 87.6029 143.105 87.9648 144.459 88.0011C144.461 88.0366 144.465 88.0721 144.468 88.1073C144.235 88.3858 144.007 88.6683 143.784 88.9547C142.846 90.148 142.651 90.3964 139.632 91.0194C138.773 91.1971 136.493 91.6682 136.459 93.2706C136.423 95.0214 139.155 95.7566 139.466 95.8346C140.551 96.1068 141.596 96.2411 142.593 96.2411C145.017 96.2411 147.15 95.4425 148.854 93.8975C148.802 100.139 149.062 106.289 149.809 108.163C150.422 109.697 151.917 113.446 156.643 113.446C157.336 113.446 158.099 113.365 158.939 113.185C163.87 112.125 166.012 109.94 166.84 105.124C167.283 102.55 168.044 96.4028 168.402 93.1056C169.157 93.3418 170.129 93.4499 171.18 93.4497C173.372 93.4497 175.901 92.9829 177.487 92.2449C179.269 91.4154 182.484 89.3801 181.901 87.6117C181.599 86.6966 180.628 86.4022 179.013 86.7363C174.219 87.7281 172.502 87.0411 171.938 86.625C175.665 80.9349 178.73 74.0567 180.384 67.6393C181.167 64.5994 181.6 61.7763 181.635 59.4752C181.674 56.9496 181.245 55.0936 180.36 53.9599C176.792 49.3894 171.554 46.9378 165.215 46.8705L164.781 46.8694ZM151.026 49.5852L151.501 49.5864C158.727 49.7049 163.361 53.4221 165.977 56.5199C168.23 59.1891 169.451 61.878 169.938 63.3282C166.275 62.9549 163.784 63.6795 162.522 65.489C159.775 69.4251 164.024 77.0645 166.067 80.7361C166.442 81.4089 166.765 81.9905 166.867 82.2376C167.532 83.8534 168.393 84.9321 169.021 85.7195C169.214 85.9607 169.401 86.1948 169.543 86.3992C168.434 86.7198 166.442 87.4604 166.623 91.1624C166.477 93.02 165.435 101.717 164.906 104.79C164.208 108.849 162.718 110.361 158.527 111.261C154.183 112.194 152.645 109.973 151.631 107.433C150.977 105.793 150.655 98.3983 150.884 90.2323C150.887 90.1237 150.871 90.0188 150.841 89.92C150.815 89.725 150.774 89.5322 150.72 89.343C150.381 88.1548 149.554 87.1609 148.562 86.7489C148.168 86.5853 147.445 86.285 146.576 86.5079C146.761 85.7424 147.082 84.878 147.431 83.942L147.577 83.5483L147.755 83.0987C147.881 82.7949 148.021 82.4824 148.167 82.1578C149.347 79.5295 150.963 75.9294 149.209 67.7965C148.552 64.7502 146.357 63.2626 143.031 63.6082C141.036 63.815 139.212 64.6216 138.302 65.0841C138.106 65.1834 137.927 65.2795 137.76 65.3729C138.014 62.3037 138.973 56.5677 142.563 52.9385C144.823 50.6539 147.834 49.5255 151.501 49.5864L151.026 49.5852ZM146.475 88.8012C147.028 88.2403 147.316 88.3604 147.811 88.5661C148.243 88.7449 148.663 89.2872 148.833 89.884C148.914 90.1658 149.005 90.7007 148.708 91.117C146.206 94.6282 142.561 94.5831 139.943 93.9263C139.403 93.7913 138.918 93.5567 138.633 93.3621C138.871 93.25 139.294 93.0974 140.028 92.9458C143.579 92.2132 144.128 91.6959 145.325 90.1717C145.545 89.892 145.788 89.5826 146.097 89.223L146.343 88.943L146.475 88.8012ZM124.238 51.777C129.404 48.1046 137.898 50.3027 141.312 51.4175C141.263 51.4661 141.212 51.5114 141.163 51.5608C135.562 57.2306 135.695 66.9176 135.709 67.5099C135.708 67.7383 135.727 68.0618 135.753 68.5067C135.85 70.1361 136.029 73.1685 135.55 76.6025C135.105 79.7937 136.086 82.9171 138.242 85.1721C138.463 85.4031 138.696 85.6229 138.939 85.8308C137.979 86.861 135.894 89.1391 133.674 91.816C132.103 93.7093 131.018 93.3464 130.661 93.2273C128.337 92.4502 125.639 87.5255 123.261 79.7163C121.204 72.9592 120.001 66.1645 119.906 64.2592C119.606 58.2333 121.063 54.0338 124.238 51.777ZM170.648 88.1215C170.732 88.1895 170.823 88.2571 170.923 88.3232C172.524 89.3823 175.379 89.4965 179.41 88.6625L179.454 88.6537L179.279 88.8115C178.72 89.2992 177.848 89.9083 176.661 90.461C175.527 90.9887 173.629 91.3845 171.825 91.4696C169.834 91.563 168.82 91.2459 168.581 91.0509C168.469 88.7439 169.326 88.5029 170.233 88.2477C170.375 88.2077 170.514 88.1684 170.648 88.1215ZM137.679 67.7805C138.497 67.0532 142.289 65.0169 144.993 65.6379C146.227 65.9211 146.979 66.7634 147.291 68.2121C148.909 75.7124 147.505 78.8385 146.377 81.3508C146.145 81.8683 145.925 82.3575 145.738 82.8635L145.592 83.2547L145.376 83.8401C145.093 84.6099 144.84 85.3382 144.67 86.0368C142.822 86.0315 141.025 85.2404 139.659 83.8112C137.921 81.9937 137.132 79.4657 137.493 76.8748C137.999 73.2472 137.813 70.0878 137.712 68.3903C137.698 68.1528 137.686 67.9446 137.679 67.7805ZM164.904 48.8358L165.46 48.8415C171.14 48.9672 175.634 51.0972 178.815 55.1721C181.255 58.2976 178.568 72.5194 170.79 84.7886C170.711 84.6889 170.633 84.5895 170.554 84.4904L170.455 84.3671L170.685 83.9681C172.434 80.7771 172.058 77.631 171.722 74.829C171.579 73.6312 171.443 72.4999 171.477 71.4371C171.513 70.3109 171.662 69.3447 171.805 68.4106C171.982 67.2595 172.162 66.0684 172.112 64.6643C172.149 64.517 172.164 64.343 172.145 64.1364C172.018 62.7899 170.485 58.7602 167.359 55.1129C165.649 53.1179 163.155 50.8853 159.75 49.3795C161.215 49.0753 163.217 48.7916 165.46 48.8415L164.904 48.8358ZM164.129 66.6163C164.738 65.7452 166.282 64.8495 170.158 65.3318C170.141 66.3051 170.008 67.1888 169.866 68.1112C169.713 69.1032 169.556 70.1289 169.516 71.3739C169.477 72.5856 169.628 73.8453 169.774 75.0636C170.069 77.5244 170.372 80.0577 169.2 82.5574C169.005 82.2116 168.832 81.8543 168.681 81.4874C168.535 81.1335 168.219 80.565 167.781 79.7782C166.077 76.7154 162.087 69.543 164.129 66.6163ZM144.462 66.6348C143.844 66.5837 143.301 66.681 143.011 66.9016C142.827 67.0412 142.77 67.2029 142.755 67.3142C142.714 67.6091 142.92 67.9353 143.046 68.1034C143.405 68.5796 143.928 68.9068 144.446 68.9788C144.521 68.9895 144.596 68.9943 144.671 68.9943C145.535 68.9943 146.32 68.3199 146.39 67.8221C146.476 67.1987 145.573 66.7831 144.697 66.6609L144.462 66.6348ZM168.337 66.6806C168.269 66.192 167.402 66.0526 166.578 66.1674C165.756 66.2822 164.959 66.6542 165.026 67.144C165.079 67.5248 165.765 68.175 166.577 68.175C166.646 68.175 166.715 68.1704 166.785 68.1605C167.327 68.0853 167.725 67.7402 167.914 67.5414C168.201 67.2382 168.368 66.9003 168.337 66.6806Z" fill="#47237E"/>
</svg>
