<svg width="300" height="161" viewBox="0 0 300 161" fill="none" xmlns="http://www.w3.org/2000/svg">
<path d="M175.63 62.7707C176.055 62.7522 185.63 62.532 185.63 80.2217C185.63 98.3134 174.156 97.0122 174.156 97.0122H150.25V99.4308H167.36L167.38 107.486C167.38 107.486 168.5 115.262 150.569 115.262C131.832 115.262 133.279 105.887 133.279 105.887V90.3959C133.279 81.4954 141.884 81.1895 142.745 81.1812L159.784 81.1811C169.961 81.1811 169.639 71.1668 169.639 71.1668V62.7715L175.63 62.7707ZM160.004 103.688C158.302 103.688 156.926 105.064 156.926 106.767C156.926 108.469 158.302 109.845 160.004 109.845C161.707 109.845 163.082 108.469 163.082 106.767C163.082 105.064 161.707 103.688 160.004 103.688ZM150.06 45C168.798 45 167.351 54.3747 167.351 54.3747V69.866C167.351 78.7665 158.746 79.0724 157.885 79.0807L140.845 79.0808C131.477 79.0808 131.006 87.5687 130.99 88.9159L130.991 97.4904L125 97.4912C124.574 97.5097 115 97.73 115 80.0403C115 61.9485 126.474 63.2497 126.474 63.2497H150.38V60.8311H133.27L133.25 52.7756C133.25 52.7756 132.13 45 150.06 45ZM140.626 50.4169C138.923 50.4169 137.547 51.7929 137.547 53.4952C137.547 55.1976 138.923 56.5735 140.626 56.5735C142.328 56.5735 143.704 55.1976 143.704 53.4952C143.704 51.7929 142.328 50.4169 140.626 50.4169Z" fill="#47237E"/>
</svg>
