<?xml version="1.0" encoding="utf-8"?>
<!-- Generator: Adobe Illustrator 25.4.1, SVG Export Plug-In . SVG Version: 6.00 Build 0)  -->
<svg version="1.1" id="Layer_1" xmlns="http://www.w3.org/2000/svg" xmlns:xlink="http://www.w3.org/1999/xlink" x="0px" y="0px"
	 viewBox="0 0 512 512" style="enable-background:new 0 0 512 512;" xml:space="preserve">
<style type="text/css">
	.st0{fill:#CEE1F2;}
	.st1{fill:#47237E;}
	.st2{fill:#43B7C5;}
</style>
<g>
	<path class="st0" d="M81.3,210.8c0-95.6,70.2-174.7,161.9-188.7c-9.4-1.4-19.1-2.2-29-2.2C108.8,20,23.3,105.4,23.3,210.8
		s85.4,190.9,190.9,190.9c9.9,0,19.5-0.7,29-2.2C151.5,385.5,81.3,306.4,81.3,210.8z"/>
	<path class="st1" d="M211,421.7C94.8,421.7,0.2,327.1,0.2,210.8S94.8,0,211,0s210.8,94.6,210.8,210.8S327.3,421.7,211,421.7
		L211,421.7z M211,40c-94.2,0-170.9,76.7-170.9,170.9S116.8,381.7,211,381.7s170.9-76.7,170.9-170.9S305.3,40,211,40L211,40z"/>
	<path class="st2" d="M506,506.1c-3.9,3.9-9,5.9-14.1,5.9s-10.2-2-14.1-5.9l-89.4-89.4c-7.8-7.8-7.8-20.5,0-28.3
		c7.8-7.8,20.5-7.8,28.3,0l89.4,89.4C513.8,485.7,513.8,498.3,506,506.1z M306.3,176.2l-13.3,8c2.6,8.2,4,16.8,4,25.8
		c0,9-1.4,17.7-4,25.8l13.3,8c9.5,5.7,12.5,18,6.9,27.4c-3.7,6.2-10.4,9.7-17.2,9.7c-3.5,0-7-0.9-10.3-2.9l-13.6-8.1
		c-10.9,10.9-24.7,18.8-40.1,22.6V310c0,11-8.9,20-20,20c-11,0-20-8.9-20-20v-17.4c-15.8-3.8-29.9-12.1-40.8-23.3l-14.8,8.9
		c-3.2,1.9-6.8,2.9-10.3,2.9c-6.8,0-13.4-3.5-17.2-9.7c-5.7-9.5-2.6-21.7,6.9-27.4l15-9c-2.4-7.9-3.7-16.2-3.7-24.8
		c0-8.6,1.3-17,3.7-24.8l-15-9c-9.5-5.7-12.5-18-6.9-27.4c5.7-9.5,18-12.5,27.4-6.9l14.8,8.9c11-11.3,25.1-19.5,40.8-23.3v-17.4
		c0-11,8.9-20,20-20c11,0,20,8.9,20,20v17.4c15.4,3.7,29.2,11.7,40.1,22.6l13.6-8.1c9.5-5.7,21.7-2.6,27.4,6.9
		C318.8,158.3,315.7,170.5,306.3,176.2L306.3,176.2z M257,210c0-24.8-20.2-45-45-45s-45,20.2-45,45s20.2,45,45,45S257,234.8,257,210
		z"/>
</g>
</svg>
