<svg width="300" height="161" viewBox="0 0 300 161" fill="none" xmlns="http://www.w3.org/2000/svg">
<path d="M151.904 56.2057C175.136 53.8826 196 74.6709 196 74.6709C196 74.6709 195.318 75.1515 194.596 75.7524C171.806 58.9294 157.883 66.8602 153.509 68.9831C133.448 80.1584 139.506 107.756 139.506 107.756H107.809C107.809 107.756 107.823 107.618 107.858 107.356L107.873 107.235C108.205 104.805 110.009 94.1744 117.398 81.8807C125.824 67.8616 140.188 57.2471 151.904 56.2057ZM140.71 99.745L145.043 101.307C145.284 103.19 145.645 104.952 146.006 106.514L141.191 104.792C140.991 103.59 140.79 101.868 140.71 99.745ZM107.006 86.7674L111.62 88.4497C110.978 89.9317 110.136 91.8943 109.614 93.2562L105 91.5739C105.401 90.4924 106.244 88.4897 107.006 86.7674ZM142.515 85.1652L145.404 87.4483C145.003 89.0104 144.722 90.5725 144.562 92.1347L141.312 89.5712C141.633 88.1292 141.994 86.6472 142.515 85.1652ZM149.617 73.99L151.423 76.7137C150.54 77.6349 149.738 78.5562 149.056 79.5575L147.13 76.6736C147.852 75.7524 148.694 74.8311 149.617 73.99ZM120.889 68.0619L123.738 70.5453C122.775 71.5466 121.852 72.6281 121.009 73.7096L117.92 71.066C118.843 70.0646 119.846 69.0632 120.889 68.0619ZM160.651 67.9017L161.534 70.5453C160.37 70.9058 159.207 71.3864 158.043 71.9472L157.12 69.1834C158.123 68.7428 159.287 68.3022 160.651 67.9017ZM170.04 66.9404C171.324 67.0205 172.648 67.1807 174.012 67.4611L173.852 69.9444C172.528 69.6641 171.204 69.5038 169.88 69.4638L170.04 66.9404ZM137.099 55.8853L138.904 58.6491C137.861 59.1698 136.858 59.7706 135.815 60.4115L133.969 57.6076C135.052 56.9668 136.096 56.406 137.099 55.8853ZM170.12 54.3632C172.648 55.0842 173.651 55.5649 174.012 55.7651L173.852 58.4488C172.568 57.9281 171.284 57.4474 169.96 57.0068L170.12 54.3632ZM154.793 52L155.596 54.4433H155.194C154.031 54.4433 152.867 54.4834 151.704 54.6035L150.941 52.2403C152.265 52.0801 153.549 52 154.793 52Z" fill="#47237E"/>
</svg>
