<svg width="300" height="161" viewBox="0 0 300 161" fill="none" xmlns="http://www.w3.org/2000/svg">
<path d="M152.301 54.2576C158.419 48.9006 164.476 46.6597 168.18 48.8088C172.043 51.0502 173.174 57.8579 171.444 66.3078C171.339 66.8228 171.221 67.3459 171.092 67.8765C171.877 68.1042 172.64 68.3462 173.376 68.6015C181.045 71.2579 186 75.4183 186 79.7206C186 84.2072 180.704 88.5941 172.565 91.3076C172.135 91.451 171.695 91.5896 171.245 91.7233C171.406 92.3726 171.548 93.0087 171.671 93.632C173.277 101.799 172.04 108.512 168.232 110.73C164.544 112.878 158.585 110.768 152.551 105.543C151.914 104.991 151.273 104.403 150.632 103.782C150.137 104.263 149.643 104.721 149.15 105.155C142.92 110.634 136.523 112.908 132.711 110.696C129.02 108.556 127.861 102.306 129.346 94.4357C129.502 93.6063 129.688 92.7559 129.903 91.8879C129.242 91.6962 128.601 91.4944 127.983 91.2816C120.153 88.5889 115 84.1482 115 79.7206C115 75.4337 119.8 71.3011 127.317 68.6641C128.158 68.3693 129.035 68.0917 129.944 67.8319C129.747 67.0299 129.572 66.2399 129.421 65.4659C127.864 57.4573 128.96 51.0575 132.66 48.9022C136.519 46.6542 142.946 49.0681 149.357 54.7965C149.748 55.1458 150.14 55.5097 150.533 55.8877C150.957 55.4785 151.38 55.0825 151.802 54.7013L152.301 54.2576ZM168.311 92.4965L167.99 92.5707C165.135 93.2171 162.003 93.6933 158.695 93.9886C156.744 96.8314 154.745 99.3899 152.745 101.591C153.342 102.171 153.938 102.717 154.529 103.23C159.689 107.698 164.474 109.392 166.712 108.089C169.07 106.715 170.077 101.251 168.695 94.2246C168.584 93.6609 168.456 93.0845 168.311 92.4965ZM132.845 92.6341L132.796 92.8266C132.669 93.3527 132.553 93.8712 132.448 94.3811L132.326 95.005C131.056 101.735 131.987 106.753 134.226 108.052C136.586 109.422 141.795 107.571 147.154 102.857C147.602 102.463 148.053 102.045 148.505 101.606C146.433 99.3653 144.376 96.809 142.412 94.0285C138.972 93.7468 135.753 93.281 132.845 92.6341ZM154.786 94.2492L154.454 94.2636C153.153 94.3172 151.834 94.3444 150.501 94.3444C149.092 94.3444 147.705 94.3174 146.345 94.2637C147.746 96.1205 149.181 97.8479 150.619 99.409C152.007 97.8692 153.403 96.1397 154.786 94.2492ZM150.501 68.2758C148.313 68.2758 146.147 68.3589 144.036 68.5193C142.843 70.2761 141.689 72.1218 140.593 74.0349L140.181 74.7587C139.245 76.43 138.372 78.1151 137.571 79.7935C138.489 81.7112 139.502 83.6388 140.602 85.5498C141.705 87.4666 142.869 89.3215 144.072 91.0892C146.142 91.2241 148.291 91.2924 150.501 91.2924C152.719 91.2924 154.897 91.2148 157.004 91.0631C158.159 89.3182 159.298 87.4691 160.408 85.5332C161.517 83.5987 162.538 81.6618 163.46 79.7492C162.535 77.8699 161.512 75.9529 160.399 74.0183C159.298 72.1052 158.152 70.2657 156.978 68.5222C154.867 68.3595 152.699 68.2758 150.501 68.2758ZM135.964 83.3826L135.872 83.6009C135.009 85.6789 134.268 87.7221 133.662 89.6902C135.688 90.1339 137.881 90.4874 140.206 90.7484C139.441 89.5542 138.696 88.329 137.977 87.079C137.271 85.852 136.599 84.6178 135.964 83.3826ZM165.096 83.2729L164.942 83.5704C164.338 84.7311 163.702 85.8953 163.035 87.0579C162.32 88.3055 161.593 89.5193 160.855 90.6949C163.198 90.411 165.421 90.0304 167.48 89.5577C166.845 87.5557 166.045 85.4495 165.096 83.2729ZM130.76 70.7724L130.444 70.8629C129.709 71.0785 128.999 71.3063 128.316 71.5459C121.887 73.8011 118.033 77.1192 118.033 79.7206C118.033 82.4621 122.228 86.0773 128.963 88.3937C129.527 88.5874 130.111 88.7717 130.715 88.9465C131.613 86.0039 132.795 82.9145 134.22 79.7942C132.814 76.7209 131.649 73.6805 130.76 70.7724ZM170.28 70.8168L170.247 70.9255C169.377 73.7366 168.223 76.7043 166.824 79.7353C168.308 82.8802 169.52 85.9234 170.419 88.7856L170.931 88.6303L171.611 88.4105C178.639 86.0676 182.967 82.4822 182.967 79.7206C182.967 77.128 178.959 73.7632 172.389 71.4872C171.71 71.2519 171.006 71.0283 170.28 70.8168ZM150.5 73.3411C154.002 73.3411 156.84 76.1973 156.84 79.7206C156.84 83.2438 154.002 86.1 150.5 86.1C146.999 86.1 144.16 83.2438 144.16 79.7206C144.16 76.1973 146.999 73.3411 150.5 73.3411ZM160.866 68.9164L160.973 69.087C161.671 70.1926 162.356 71.3282 163.024 72.4892C163.741 73.7365 164.423 74.9778 165.068 76.2085C165.964 74.0927 166.727 72.029 167.339 70.0555C165.302 69.5865 163.131 69.2047 160.866 68.9164ZM140.142 68.9093L139.392 69.0082C137.411 69.2772 135.505 69.617 133.705 70.0222C134.321 72.0228 135.078 74.0959 135.96 76.2031C136.593 74.9683 137.262 73.7347 137.964 72.5103L138.449 71.6644L138.456 71.6644L138.827 71.0395C139.258 70.319 139.697 69.6086 140.142 68.9093ZM166.519 51.3742C164.224 50.236 159.422 52.0676 154.292 56.5598C153.75 57.0347 153.206 57.5368 152.66 58.0647C154.689 60.266 156.711 62.8074 158.661 65.6022C162.011 65.9187 165.21 66.428 168.157 67.1121C168.272 66.6322 168.378 66.1583 168.473 65.6923C169.967 58.3962 169.042 52.8323 166.665 51.4527L166.519 51.3742ZM147.005 56.7795C141.594 52.0534 136.507 50.188 134.18 51.5435C131.95 52.8423 131.064 58.0182 132.398 64.8796C132.538 65.598 132.7 66.3322 132.885 67.0802C135.824 66.4101 139.021 65.9097 142.36 65.5984C144.308 62.8319 146.347 60.2939 148.41 58.0648C148.053 57.7246 147.697 57.395 147.343 57.0786L147.005 56.7795ZM150.536 60.2491L150.31 60.4931C148.965 61.97 147.628 63.5882 146.321 65.3217C147.701 65.2569 149.097 65.2239 150.501 65.2239C151.918 65.2239 153.324 65.2575 154.712 65.3235C153.336 63.4769 151.935 61.7741 150.536 60.2491Z" fill="#47237E"/>
</svg>
