<svg width="300" height="161" viewBox="0 0 300 161" fill="none" xmlns="http://www.w3.org/2000/svg">
<mask id="mask0" mask-type="alpha" maskUnits="userSpaceOnUse" x="117" y="47" width="67" height="67">
<path d="M179.115 97.5273C177.199 100.876 174.72 103.861 171.806 106.353C166.015 111.13 158.593 114 150.5 114C141.028 114 132.474 110.069 126.381 103.749C127.105 103.992 127.855 104.21 128.562 104.409C134.373 106.012 140.628 105.967 146.406 104.265C150.106 103.174 153.584 101.438 157.217 100.124C164.15 97.6242 171.781 96.7438 179.115 97.5273ZM136.018 88.0607C143.495 89.0846 150.195 93.2582 157.573 94.8831C163.529 96.1964 169.84 95.7846 175.573 93.7145C177.997 92.8324 180.402 91.6698 182.563 90.2446C181.896 92.4345 181.012 94.5309 179.936 96.507L179.749 96.4863C172.219 95.6817 164.431 96.5988 157.385 99.1395L156.495 99.4692C156.002 99.6563 155.492 99.8579 154.863 100.113L151.261 101.595C149.28 102.398 148.056 102.841 146.633 103.26C141.051 104.906 134.995 104.953 129.363 103.4L128.32 103.098C127.518 102.859 126.871 102.645 126.272 102.416L124.693 101.815C122.254 98.7532 120.342 95.2531 119.094 91.4519C124.229 88.517 130.24 87.2705 136.018 88.0607ZM183.979 81.7241L183.96 82.1554C183.849 84.4335 183.511 86.652 182.967 88.7884L182.385 89.1874C180.267 90.6433 177.802 91.8835 175.186 92.8354C169.639 94.8383 163.529 95.2355 157.77 93.9655L156.938 93.7731C154.751 93.2413 152.73 92.5363 149.019 91.0925L147.361 90.4485C153.808 87.4779 159.65 83.097 166.476 81.1507C172.139 79.5284 178.414 79.7774 183.979 81.7241ZM176.926 60.1906C178.465 62.0956 179.798 64.1712 180.891 66.3842C182.003 68.7781 182.843 71.3252 183.367 73.9855L183.582 74.1389C181.299 72.4583 178.715 71.0381 176.076 70.007C170.025 67.6452 163.266 67.1435 156.95 68.5922L156.079 68.8021C153.792 69.3803 151.724 70.126 148.338 71.5335L144.76 73.0448C142.382 74.0463 140.406 74.8089 138.623 75.3769C142.344 76.1129 145.935 77.5348 149.432 79.0437C152.476 80.3572 155.504 81.7586 158.623 82.8697C157.609 83.3861 156.494 83.9861 155.227 84.6867L152.224 86.363C149.515 87.8678 147.784 88.7691 146.077 89.5188L145.757 89.6567L145.591 89.593C141.393 88.0042 138.896 87.277 135.898 86.8664C129.988 86.0582 123.8 87.2913 118.459 90.3031C117.51 87.2034 117 83.9113 117 80.5L117.001 80.5687C118.522 79.3629 120.298 78.2876 122.032 77.4521C123.075 76.946 124.152 76.5117 125.254 76.1508C122.722 75.5675 120.26 74.5679 118.017 73.1968L117.838 73.0876C118.34 71.0522 119.03 69.0899 119.889 67.2199C125.261 64.3079 131.581 62.6274 137.709 62.6937C145.394 62.7716 152.933 65.3092 160.617 65.12C166.325 64.9762 172.077 63.1722 176.926 60.1906ZM175.941 70.9286C178.616 71.9838 181.272 73.4778 183.595 75.2755C183.862 76.9787 184 78.7232 184 80.5L183.998 80.192C178.358 78.3722 172.141 78.2268 166.544 79.8302C164.492 80.4154 162.708 81.101 160.52 82.1612L160.58 82.1827C158.692 81.5626 156.916 80.8501 153.924 79.5517L150.436 78.0301C147.508 76.7666 145.067 75.8217 142.825 75.1434C143.493 74.8833 144.156 74.6123 144.817 74.3363L149.23 72.4559C151.967 71.3033 154.733 70.2297 157.619 69.5597C163.674 68.1574 170.152 68.6471 175.941 70.9286ZM118.273 74.0353C119.672 74.8986 121.163 75.6261 122.711 76.2025L122.165 76.458C120.568 77.2272 119.003 78.1599 117.626 79.1727C117.711 77.4217 117.929 75.7058 118.273 74.0353ZM165.218 50.4377C165.682 50.6529 166.141 50.878 166.594 51.1127C170.309 53.1508 173.596 55.8737 176.284 59.1112L176.672 58.8824C171.824 61.8154 166.156 63.5179 160.638 63.6547C157.769 63.7242 155.208 63.4838 150.826 62.8109L146.4 62.1114C142.324 61.4839 140.106 61.2552 137.398 61.2281C131.854 61.1691 126.078 62.4532 120.88 64.8346C122.519 61.7438 124.627 58.9396 127.11 56.5178L126.882 56.4525C130.59 57.581 134.627 57.8622 138.445 57.1765C144.749 56.0524 150.358 52.502 156.594 51.0552C159.362 50.4071 162.377 50.2178 165.218 50.4377ZM150.472 47L150.455 47C154.563 47 158.497 47.7418 162.132 49.0987C160.087 49.1284 158.053 49.3727 156.158 49.8279C153.876 50.3712 152.092 51.0163 148.494 52.5123L146.243 53.4486C142.755 54.8785 140.842 55.5135 138.526 55.9373C135.198 56.5506 131.645 56.3592 128.306 55.4079C133.966 50.3956 141.336 47.2706 149.43 47.0168L149.429 47.0155L149.946 47.0045L150.472 47Z" fill="white"/>
</mask>
<g mask="url(#mask0)">
<path d="M179.115 97.5273C177.199 100.876 174.72 103.861 171.806 106.353C166.015 111.13 158.593 114 150.5 114C141.028 114 132.474 110.069 126.381 103.749C127.105 103.992 127.855 104.21 128.562 104.409C134.373 106.012 140.628 105.967 146.406 104.265C150.106 103.174 153.584 101.438 157.217 100.124C164.15 97.6242 171.781 96.7438 179.115 97.5273ZM136.018 88.0607C143.495 89.0846 150.195 93.2582 157.573 94.8831C163.529 96.1964 169.84 95.7846 175.573 93.7145C177.997 92.8324 180.402 91.6698 182.563 90.2446C181.896 92.4345 181.012 94.5309 179.936 96.507L179.749 96.4863C172.219 95.6817 164.431 96.5988 157.385 99.1395L156.495 99.4692C156.002 99.6563 155.492 99.8579 154.863 100.113L151.261 101.595C149.28 102.398 148.056 102.841 146.633 103.26C141.051 104.906 134.995 104.953 129.363 103.4L128.32 103.098C127.518 102.859 126.871 102.645 126.272 102.416L124.693 101.815C122.254 98.7532 120.342 95.2531 119.094 91.4519C124.229 88.517 130.24 87.2705 136.018 88.0607ZM183.979 81.7241L183.96 82.1554C183.849 84.4335 183.511 86.652 182.967 88.7884L182.385 89.1874C180.267 90.6433 177.802 91.8835 175.186 92.8354C169.639 94.8383 163.529 95.2355 157.77 93.9655L156.938 93.7731C154.751 93.2413 152.73 92.5363 149.019 91.0925L147.361 90.4485C153.808 87.4779 159.65 83.097 166.476 81.1507C172.139 79.5284 178.414 79.7774 183.979 81.7241ZM176.926 60.1906C178.465 62.0956 179.798 64.1712 180.891 66.3842C182.003 68.7781 182.843 71.3252 183.367 73.9855L183.582 74.1389C181.299 72.4583 178.715 71.0381 176.076 70.007C170.025 67.6452 163.266 67.1435 156.95 68.5922L156.079 68.8021C153.792 69.3803 151.724 70.126 148.338 71.5335L144.76 73.0448C142.382 74.0463 140.406 74.8089 138.623 75.3769C142.344 76.1129 145.935 77.5348 149.432 79.0437C152.476 80.3572 155.504 81.7586 158.623 82.8697C157.609 83.3861 156.494 83.9861 155.227 84.6867L152.224 86.363C149.515 87.8678 147.784 88.7691 146.077 89.5188L145.757 89.6567L145.591 89.593C141.393 88.0042 138.896 87.277 135.898 86.8664C129.988 86.0582 123.8 87.2913 118.459 90.3031C117.51 87.2034 117 83.9113 117 80.5L117.001 80.5687C118.522 79.3629 120.298 78.2876 122.032 77.4521C123.075 76.946 124.152 76.5117 125.254 76.1508C122.722 75.5675 120.26 74.5679 118.017 73.1968L117.838 73.0876C118.34 71.0522 119.03 69.0899 119.889 67.2199C125.261 64.3079 131.581 62.6274 137.709 62.6937C145.394 62.7716 152.933 65.3092 160.617 65.12C166.325 64.9762 172.077 63.1722 176.926 60.1906ZM175.941 70.9286C178.616 71.9838 181.272 73.4778 183.595 75.2755C183.862 76.9787 184 78.7232 184 80.5L183.998 80.192C178.358 78.3722 172.141 78.2268 166.544 79.8302C164.492 80.4154 162.708 81.101 160.52 82.1612L160.58 82.1827C158.692 81.5626 156.916 80.8501 153.924 79.5517L150.436 78.0301C147.508 76.7666 145.067 75.8217 142.825 75.1434C143.493 74.8833 144.156 74.6123 144.817 74.3363L149.23 72.4559C151.967 71.3033 154.733 70.2297 157.619 69.5597C163.674 68.1574 170.152 68.6471 175.941 70.9286ZM118.273 74.0353C119.672 74.8986 121.163 75.6261 122.711 76.2025L122.165 76.458C120.568 77.2272 119.003 78.1599 117.626 79.1727C117.711 77.4217 117.929 75.7058 118.273 74.0353ZM165.218 50.4377C165.682 50.6529 166.141 50.878 166.594 51.1127C170.309 53.1508 173.596 55.8737 176.284 59.1112L176.672 58.8824C171.824 61.8154 166.156 63.5179 160.638 63.6547C157.769 63.7242 155.208 63.4838 150.826 62.8109L146.4 62.1114C142.324 61.4839 140.106 61.2552 137.398 61.2281C131.854 61.1691 126.078 62.4532 120.88 64.8346C122.519 61.7438 124.627 58.9396 127.11 56.5178L126.882 56.4525C130.59 57.581 134.627 57.8622 138.445 57.1765C144.749 56.0524 150.358 52.502 156.594 51.0552C159.362 50.4071 162.377 50.2178 165.218 50.4377ZM150.472 47L150.455 47C154.563 47 158.497 47.7418 162.132 49.0987C160.087 49.1284 158.053 49.3727 156.158 49.8279C153.876 50.3712 152.092 51.0163 148.494 52.5123L146.243 53.4486C142.755 54.8785 140.842 55.5135 138.526 55.9373C135.198 56.5506 131.645 56.3592 128.306 55.4079C133.966 50.3956 141.336 47.2706 149.43 47.0168L149.429 47.0155L149.946 47.0045L150.472 47Z" fill="#47237E"/>
</g>
</svg>
