<svg width="300" height="161" viewBox="0 0 300 161" fill="none" xmlns="http://www.w3.org/2000/svg">
<path d="M119.321 49.0374C119.19 49.0745 119.083 49.1991 119.036 49.3696C118.965 49.6284 119.008 112.634 119.08 112.762C119.113 112.822 119.182 112.898 119.232 112.93C119.382 113.026 180.908 113.022 181.053 112.925C181.106 112.89 181.175 112.815 181.207 112.758C181.293 112.602 181.316 58.6051 181.229 58.3799C181.154 58.1849 180.931 58.0727 180.733 58.1309C180.595 58.1715 180.655 58.1059 164.194 76.2346C159.834 81.0368 160.12 80.7623 159.664 80.5829C159.536 80.5322 149.253 70.1807 149.104 69.9525C149.029 69.8374 149.017 69.5358 149.082 69.4152C149.182 69.2308 152.548 64.9467 152.658 64.8645C152.814 64.7479 153.036 64.7224 153.237 64.7978C153.371 64.8481 153.732 65.2298 156.352 68.093C158.014 69.9096 159.363 71.3553 159.423 71.3858C159.563 71.4568 159.818 71.4553 159.975 71.3826C160.078 71.3343 175.493 50.8148 176.242 49.7274C176.436 49.4455 176.374 49.1621 176.093 49.0466C175.957 48.991 119.516 48.9818 119.321 49.0374ZM138.338 78.7992C141.175 79.157 143.65 80.1336 145.812 81.7481C146.325 82.1312 146.437 82.3351 146.313 82.6571C146.276 82.7506 143.895 85.8607 143.712 86.0526C143.377 86.406 143.165 86.3733 142.458 85.8594C139.052 83.3851 133.67 82.8712 132.153 84.8754C131.567 85.65 131.533 86.6604 132.072 87.3038C132.683 88.0335 133.823 88.4546 137.515 89.3152C141.58 90.2628 143.619 91.1306 145.123 92.5529C146.513 93.8673 147.114 95.3788 147.113 97.5587C147.113 103.207 142.463 106.4 134.846 105.984C131.412 105.796 128.028 104.458 125.546 102.307C125.212 102.016 125.13 101.744 125.295 101.47C125.488 101.149 127.838 97.9649 127.921 97.9111C128.198 97.7336 128.47 97.8087 128.912 98.1845C131.733 100.582 135.822 101.639 138.901 100.766C141.343 100.074 142.193 97.8129 140.485 96.5501C139.697 95.9676 138.811 95.6687 135.564 94.8898C133.492 94.3926 133.012 94.2636 132.04 93.9416C127.829 92.5475 125.914 90.3115 125.905 86.7791C125.894 82.3859 129.571 79.1292 134.966 78.7559C135.628 78.7101 137.858 78.7386 138.338 78.7992ZM160.859 85.402C166.143 85.738 169.752 89.564 170.124 95.2249C170.23 96.8304 170.195 97.1285 169.887 97.2817L169.735 97.3573H162.595C156.127 97.3573 155.45 97.3622 155.41 97.4103C155.308 97.5309 155.545 98.3609 155.857 98.9736C156.486 100.208 157.575 101.139 158.931 101.602C160.873 102.264 163.855 101.726 165.849 100.353C166.137 100.155 166.361 100.124 166.56 100.253C166.686 100.335 168.349 102.666 168.491 102.961C168.673 103.336 168.478 103.556 167.402 104.192C165.09 105.557 162.454 106.141 159.313 105.983C154.802 105.757 150.935 102.489 149.992 98.106C149.697 96.7358 149.695 94.7561 149.987 93.3565C150.869 89.1327 154.543 85.8504 158.851 85.438C159.058 85.4181 159.274 85.3968 159.33 85.3904C159.552 85.3654 160.382 85.3718 160.859 85.402ZM159.57 89.5342C157.474 89.7066 155.673 91.3382 155.321 93.3824C155.234 93.8909 154.591 93.8313 160.159 93.8313C163.573 93.8313 164.95 93.8207 165 93.7942C165.182 93.6986 164.922 92.6202 164.55 91.9267C163.605 90.1647 161.894 89.3428 159.57 89.5342Z" fill="#47237E"/>
</svg>
