<svg width="300" height="161" viewBox="0 0 300 161" fill="none" xmlns="http://www.w3.org/2000/svg">
<path d="M164.536 55.3468L167.013 57.8214C167.013 57.8214 172.431 58.2267 172.686 58.2474C173 58.2743 173.255 58.5125 173.303 58.8243C173.352 59.1822 181 111.255 181 111.255L162.233 115.342L164.536 55.3468ZM161.657 53.3736C161.538 53.389 161.419 53.4138 161.303 53.4475L159.195 54.1013C157.937 50.4581 155.719 47.1108 151.817 47.1108C151.709 47.1108 151.596 47.1137 151.487 47.1211C150.375 45.6434 149.001 45 147.814 45C138.72 45 134.375 56.4487 133.013 62.2648C129.479 63.3668 126.97 64.1493 126.651 64.2514C124.676 64.8756 124.614 64.9377 124.356 66.8088C124.161 68.2259 119 108.413 119 108.413L159.211 116L159.254 115.991L161.657 53.3736ZM151.188 56.2002L151.187 56.5981L144.157 58.7888C145.511 53.5318 148.047 50.9906 150.266 50.0321C150.822 51.4432 151.188 53.4682 151.188 56.2002ZM147.561 47.4554C147.957 47.4554 148.351 47.5915 148.73 47.8533C145.815 49.2334 142.693 52.7124 141.373 59.6571L135.818 61.3906C137.362 56.0923 141.031 47.4569 147.561 47.4569V47.4554ZM149.129 78.4188C149.129 78.4188 146.776 77.1541 143.892 77.1541C139.661 77.1541 139.448 79.827 139.448 80.5C139.448 84.1772 148.961 85.5854 148.961 94.1941C148.961 100.966 144.695 105.328 138.942 105.328C132.039 105.328 128.51 101.001 128.51 101.001L130.358 94.8524C130.358 94.8524 133.988 97.9897 137.049 97.9897C139.048 97.9897 139.863 96.404 139.863 95.2458C139.863 90.4504 132.057 90.2359 132.057 82.3564C132.057 75.7282 136.784 69.3101 146.324 69.3101C150 69.3101 151.816 70.3721 151.816 70.3721L149.129 78.4188ZM153.571 55.8541L153.572 55.1145C153.572 52.8514 153.259 51.0291 152.76 49.5839C154.771 49.8369 156.111 52.1429 156.972 54.7936L153.571 55.8541Z" fill="#47237E"/>
</svg>
