<?xml version="1.0" encoding="utf-8"?>
<!-- Generator: Adobe Illustrator 25.4.1, SVG Export Plug-In . SVG Version: 6.00 Build 0)  -->
<svg version="1.1" id="Capa_1" xmlns="http://www.w3.org/2000/svg" xmlns:xlink="http://www.w3.org/1999/xlink" x="0px" y="0px"
	 viewBox="0 0 512 512" style="enable-background:new 0 0 512 512;" xml:space="preserve">
<style type="text/css">
	.st0{fill:#CEE1F2;}
	.st1{fill:#43B7C5;}
	.st2{fill:#47237E;}
</style>
<g>
	<path class="st0" d="M80,416c0-22.1,17.9-40,40-40H60c-22.1,0-40,17.9-40,40s17.9,40,40,40h60C97.9,456,80,438.1,80,416z"/>
	<path class="st1" d="M204.5,271.2c0.4,6.9,4.4,13.1,10.5,16.4c6.1,3.3,13.5,3.1,19.5-0.4l34.6-20.1l10.1,17.3
		c3.7,6.4,10.4,10,17.3,10c3.4,0,6.9-0.9,10-2.7c9.5-5.6,12.8-17.8,7.2-27.3L303.7,247l34.6-20.1c6-3.5,9.8-9.8,9.9-16.8
		s-3.2-13.5-9-17.3L227,119.3c-6.3-4.2-14.5-4.4-21-0.6c-6.5,3.8-10.4,11-9.9,18.5L204.5,271.2z M290.2,208.6l-47.8,27.8l-3.9-61.7
		L290.2,208.6z"/>
	<g>
		<path class="st2" d="M60,316c11,0,20-9,20-20V136c0-33.1,26.9-60,60-60h232c33.1,0,60,26.9,60,60v160c0,11,9,20,20,20s20-9,20-20
			V136c0-55.1-44.9-100-100-100H140C84.9,36,40,80.9,40,136v160C40,307,49,316,60,316z"/>
		<path class="st2" d="M452,356H60c-33.1,0-60,26.9-60,60s26.9,60,60,60h392c33.1,0,60-26.9,60-60S485.1,356,452,356z M452,436H60
			c-11,0-20-9-20-20s9-20,20-20h392c11,0,20,9,20,20S463,436,452,436z"/>
	</g>
</g>
</svg>
