<?xml version="1.0" encoding="utf-8"?>
<!-- Generator: Adobe Illustrator 25.4.1, SVG Export Plug-In . SVG Version: 6.00 Build 0)  -->
<svg version="1.1" id="Capa_1" xmlns="http://www.w3.org/2000/svg" xmlns:xlink="http://www.w3.org/1999/xlink" x="0px" y="0px"
	 viewBox="0 0 512 512" style="enable-background:new 0 0 512 512;" xml:space="preserve">
<style type="text/css">
	.st0{fill:#CEE1F2;}
	.st1{fill:#43B7C5;}
	.st2{fill:#47237E;}
</style>
<g>
	<path class="st0" d="M80,416v-80c0-22.2,12.1-41.6,30-52c-8.8-5.1-19.1-8-30-8c-33.1,0-60,26.9-60,60v80c0,33.1,26.9,60,60,60
		c10.9,0,21.2-2.9,30-8C92.1,457.6,80,438.2,80,416z"/>
	<path class="st0" d="M432,416v-80c0-22.2,12.1-41.6,30-52c-8.8-5.1-19.1-8-30-8c-33.1,0-60,26.9-60,60v80c0,33.1,26.9,60,60,60
		c10.9,0,21.2-2.9,30-8C444.1,457.6,432,438.2,432,416z"/>
	<path class="st1" d="M196,356v40c0,11,9,20,20,20s20-9,20-20v-40c0-11-9-20-20-20S196,345,196,356z"/>
	<path class="st1" d="M296,336c-11,0-20,9-20,20v40c0,11,9,20,20,20s20-9,20-20v-40C316,345,307,336,296,336z"/>
	<g>
		<path class="st2" d="M80,496c44.1,0,80-35.9,80-80v-80c0-44.1-35.9-80-80-80S0,291.9,0,336v80C0,460.1,35.9,496,80,496z M40,336
			c0-22.1,17.9-40,40-40s40,17.9,40,40v80c0,22.1-17.9,40-40,40s-40-17.9-40-40V336z"/>
		<path class="st2" d="M512,336c0-44.1-35.9-80-80-80s-80,35.9-80,80v80c0,44.1,35.9,80,80,80s80-35.9,80-80V336z M472,416
			c0,22.1-17.9,40-40,40s-40-17.9-40-40v-80c0-22.1,17.9-40,40-40s40,17.9,40,40V416z"/>
		<path class="st2" d="M100,217.4c11,0,20-9,20-20V196c0-78.5,59.7-140,136-140s136,61.5,136,140v1.4c0,11,9,20,20,20s20-9,20-20
			V196c0-100-77-180-176-180C157.2,16,80,95.9,80,196v1.4C80,208.5,89,217.4,100,217.4z"/>
	</g>
</g>
</svg>
