<svg width="300" height="161" viewBox="0 0 300 161" fill="none" xmlns="http://www.w3.org/2000/svg">
<path d="M166.64 48C168.036 48.1318 169.58 48.1318 170.976 48.4211C172.383 48.6722 173.751 49.145 175.039 49.8252C176.36 50.4623 177.559 51.3411 178.593 52.4212C180.625 54.4863 181.996 57.1757 182.511 60.1103C182.788 61.5402 182.928 62.9956 182.928 64.4547H183V97.624C182.93 99.0794 182.791 100.53 182.583 101.968C182.35 103.448 181.877 104.872 181.187 106.179C180.55 107.492 179.695 108.678 178.666 109.676C177.563 110.692 176.342 111.539 175.038 112.195C173.778 112.859 172.433 113.323 171.047 113.579C169.618 113.857 168.164 113.998 166.711 114H133.232C131.836 113.868 130.292 113.868 128.896 113.579C127.489 113.328 126.121 112.855 124.833 112.175C123.54 111.554 122.356 110.699 121.334 109.656C119.303 107.591 117.931 104.901 117.417 101.967C117.14 100.537 117 99.0813 117 97.6222V64.1105C117.07 62.6613 117.21 61.2173 117.417 59.7845C117.65 58.3052 118.123 56.8809 118.813 55.5738C119.469 54.2448 120.335 53.0594 121.37 52.0752C121.643 51.8043 121.932 51.6725 122.205 51.3832C123.044 50.6892 123.936 50.0778 124.87 49.5561L125.849 49.1351C126.835 48.7048 127.873 48.4174 128.932 48.2893C129.996 48.1174 131.068 48.0208 132.143 48H166.64ZM155.8 60.1579C160.598 66.5408 162.786 74.2576 160.865 81.0434C160.691 81.664 160.483 82.2729 160.242 82.8671L159.354 82.3565C151.038 77.0956 143.295 70.9454 136.244 64.0067C140.468 70.0423 145.146 75.7322 150.233 81.0243C143.253 76.6961 136.605 71.8156 130.359 66.4314C131.148 67.7375 132.065 68.9602 133.096 70.0787C139.045 77.7868 145.912 84.6995 153.539 90.6534C147.762 94.1375 139.531 94.3007 131.318 90.6534C129.314 89.7884 127.423 88.6855 125.684 87.3534C129.412 93.0415 134.721 97.4531 140.919 100.011C148.868 103.313 156.778 102.987 162.538 99.7562L162.535 99.7753C165.326 98.6081 170.891 96.8938 173.895 102.457C174.589 103.789 176.099 96.7479 170.606 90.0906L170.518 89.9812C170.608 89.7068 170.749 89.4341 170.749 89.1597C173.488 78.9088 166.91 66.6711 155.8 60.1579Z" fill="#47237E"/>
</svg>
