<svg width="300" height="161" viewBox="0 0 300 161" fill="none" xmlns="http://www.w3.org/2000/svg">
<path d="M130.696 96.8302C135.089 99.902 142.494 104.149 146.842 106.049C139.071 110.773 132.52 112.41 129.581 109.762L129.416 109.604L129.208 109.38C127.21 107.055 127.765 102.558 130.32 97.0101L130.644 96.8582L130.696 96.8302ZM169.191 96.7785L169.681 97.0119C172.252 102.596 172.797 107.115 170.751 109.426L170.584 109.604C167.723 112.481 161.033 110.851 153.08 106C157.377 104.106 164.549 99.996 168.924 96.9617L169.191 96.7785ZM150 71.7727C151.206 72.8781 152.409 74.0301 153.605 75.2331C160.191 81.8537 165.358 88.7312 168.518 94.6718C163.49 98.2327 151.699 104.877 149.905 104.877C148.126 104.877 136.531 98.3518 131.429 94.7677C134.585 88.8067 139.773 81.8901 146.395 75.2331C147.591 74.0301 148.794 72.8781 150 71.7727ZM152.443 54.8402C160.581 49.5129 167.07 47.8091 169.066 49.8154L174.098 54.7858L173.708 54.8561C169.814 55.6052 165.116 57.7978 159.987 61.1713L157.703 62.6737L159.693 64.5521L160.893 65.7036L162.086 66.8848L162.705 67.5123C175.607 80.7044 182.477 94.773 179.065 98.2025L173.935 103.266L173.823 102.619C172.331 94.829 165.335 83.9717 155.124 73.7063C153.919 72.495 152.694 71.3195 151.447 70.1768L150 68.8514L148.553 70.1768L147.313 71.3305C146.492 72.1071 145.679 72.8988 144.876 73.7063L144.239 74.3517C134.116 84.6887 127.287 95.5459 126.073 103.212L126.063 103.266L120.921 98.1889L120.767 98.0183C117.694 94.2669 124.822 80.0462 137.914 66.8848C138.707 66.0873 139.504 65.3102 140.307 64.5521L142.297 62.6737L139.374 60.7558C134.494 57.6176 130.024 55.574 126.292 54.8561L125.899 54.7858L130.921 49.829L131.107 49.6625C131.635 49.2423 132.417 49.0152 133.511 49.0185C137.026 49.0292 142.566 51.3979 148.789 55.6663L150 56.4965L151.21 55.6664L152.443 54.8402ZM180.584 58.1637C183.819 61.4159 181.331 69.5827 174.956 78.9464C174.541 78.3371 174.11 77.7222 173.662 77.1032C173.54 72.5378 173.182 68.5719 172.588 67.5379C172.061 66.6189 169.444 64.7043 166.15 62.6128C166.826 61.4144 167.425 60.2496 167.941 59.1277C173.695 56.4269 178.329 55.8965 180.584 58.1637ZM132.059 59.1265C132.562 60.2209 133.143 61.3561 133.798 62.5236C130.439 64.6502 127.756 66.606 127.221 67.5379C126.615 68.5925 126.255 72.6968 126.141 77.3765C125.763 77.9034 125.398 78.4264 125.044 78.9456C118.776 69.7385 116.265 61.6892 119.258 58.331L119.416 58.1637L119.639 57.9556C121.967 55.9327 126.487 56.5127 132.059 59.1265ZM138.036 62.4595C138.302 62.6289 138.569 62.8019 138.837 62.9782C138.02 63.7495 137.206 64.5423 136.395 65.358C133.414 68.3544 130.724 71.4034 128.379 74.3944C128.512 71.4655 128.746 69.2015 129.081 68.6175C129.584 67.7423 133.451 65.1786 137.737 62.6363L138.036 62.4595ZM161.873 62.5173C166.238 65.0985 170.218 67.7287 170.728 68.6175C171.054 69.1843 171.284 71.333 171.418 74.1355C169.122 71.2291 166.5 68.2687 163.605 65.358C162.794 64.5423 161.98 63.7495 161.163 62.9782C161.4 62.8219 161.637 62.6682 161.873 62.5173Z" fill="#47237E"/>
</svg>
