<?xml version="1.0" encoding="utf-8"?>
<!-- Generator: Adobe Illustrator 25.4.1, SVG Export Plug-In . SVG Version: 6.00 Build 0)  -->
<svg version="1.1" id="Capa_1" xmlns="http://www.w3.org/2000/svg" xmlns:xlink="http://www.w3.org/1999/xlink" x="0px" y="0px"
	 viewBox="0 0 512 512" style="enable-background:new 0 0 512 512;" xml:space="preserve">
<style type="text/css">
	.st0{fill:#CEE1F2;}
	.st1{fill:#43B7C5;}
	.st2{fill:#47237E;}
</style>
<g>
	<path class="st0" d="M288.5,412.8C182.5,433.3,76.4,342.8,20,256C76.9,168.5,183.5,78.9,288.5,99.2
		C197.1,116.7,124,203.1,96.6,239.6c-7.3,9.7-7.3,23.1,0,32.8C124,308.9,197.1,395.3,288.5,412.8L288.5,412.8z"/>
	<path class="st1" d="M256,356c-55.1,0-100-44.9-100-100s44.9-100,100-100s100,44.9,100,100S311.1,356,256,356z M256,196
		c-33.1,0-60,26.9-60,60s26.9,60,60,60s60-26.9,60-60S289.1,196,256,196z"/>
	<path class="st2" d="M256,436C152.6,436,52.9,343.8,3.2,266.9c-4.3-6.6-4.3-15.1,0-21.7C55.3,164.6,155.5,76,256,76
		c103.4,0,203.1,92.2,252.8,169.1c4.3,6.6,4.3,15.1,0,21.7C456.7,347.4,356.5,436,256,436L256,436z M44.4,256
		C69.8,290.6,155.2,396,256,396c101,0,186.3-105.4,211.6-140C442.2,221.4,356.8,116,256,116C155,116,69.7,221.4,44.4,256L44.4,256z"
		/>
</g>
</svg>
