<svg width="300" height="161" viewBox="0 0 300 161" fill="none" xmlns="http://www.w3.org/2000/svg">
<path d="M186 45V117H114V45H186ZM171.888 78.084C170.646 77.76 167.676 77.652 166.416 77.904C162.528 78.624 159.81 81.144 159.036 84.744C158.784 85.77 158.874 88.326 159.144 89.37C159.504 90.576 160.278 92.034 161.124 92.97C162.6 94.518 164.184 95.526 167.91 97.11C171.15 98.55 172.302 99.198 172.878 99.99C173.292 100.62 173.418 100.998 173.418 101.826C173.418 102.726 173.13 103.374 172.464 103.986C170.916 105.39 167.784 105.552 165.444 104.346C164.67 103.914 163.338 102.654 162.744 101.718L162.276 101.088L160.242 102.276L157.542 103.842L156.858 104.274C156.786 104.4 158.064 106.326 158.73 107.046C160.422 108.9 163.176 110.34 166.056 110.88C167.406 111.114 170.286 111.15 171.546 110.934C175.56 110.268 178.368 108.234 179.52 105.228C180.546 102.474 180.204 98.802 178.674 96.462C177.324 94.374 175.092 92.916 169.944 90.702C167.154 89.478 166.254 88.884 165.768 87.894C165.552 87.426 165.444 87.102 165.444 86.526C165.444 84.636 166.884 83.502 169.044 83.646C170.538 83.754 171.492 84.33 172.428 85.662C172.716 86.13 173.004 86.436 173.076 86.382C174.966 85.212 178.08 83.106 178.08 82.998C178.008 82.674 177.018 81.414 176.352 80.694C175.092 79.38 173.688 78.552 171.852 78.12L171.888 78.084ZM142.44 78.138L129.84 78.192V81.144L129.786 81.126V84.06H139.146V110.7H145.788V84.06H155.148L155.148 80.3074C155.145 79.1122 155.135 78.2393 155.076 78.21C155.076 78.156 149.37 78.138 142.44 78.138Z" fill="#47237E"/>
</svg>
