<?xml version="1.0" encoding="utf-8"?>
<!-- Generator: Adobe Illustrator 25.4.1, SVG Export Plug-In . SVG Version: 6.00 Build 0)  -->
<svg version="1.1" id="Capa_1" xmlns="http://www.w3.org/2000/svg" xmlns:xlink="http://www.w3.org/1999/xlink" x="0px" y="0px"
	 viewBox="0 0 512 512" style="enable-background:new 0 0 512 512;" xml:space="preserve">
<style type="text/css">
	.st0{fill:#CEE1F2;}
	.st1{fill:#43B7C5;}
	.st2{fill:#47237E;}
</style>
<g>
	<path class="st0" d="M124.3,416l34.1-34.1c17.5-17.5,24.9-41.9,22.6-66.5c-2.2-22.8,5.4-46.3,22.9-63.8L369.6,85.9
		c28.8-28.8,74.2-31,105.6-6.6c-2-2.6-4.2-5.1-6.6-7.5l-28.3-28.3c-31.2-31.2-81.9-31.2-113.1,0L161.4,209.1
		c-17.5,17.5-25.1,41-22.9,63.8c2.3,24.6-5.1,49.1-22.6,66.5L39.4,416H124.3z"/>
	<path class="st1" d="M369.6,170.7c7.8,7.8,20.5,7.8,28.3,0c7.8-7.8,7.8-20.5,0-28.3l-28.3-28.3c-7.8-7.8-20.5-7.8-28.3,0
		c-7.8,7.8-7.8,20.5,0,28.3L369.6,170.7z"/>
	<g>
		<path class="st2" d="M20,512h472c11,0,20-9,20-20s-9-20-20-20H20c-11,0-20,9-20,20S9,512,20,512z"/>
		<path class="st2" d="M39.4,436h84.9c23.5,0,45.7-9.2,62.3-25.8c12.5-12.5,30.9-18.7,50.5-16.8c29.7,2.8,58.8-7.6,79.8-28.7
			L482.7,199c18.9-18.9,29.3-44,29.3-70.7s-10.4-51.8-29.3-70.7l-28.3-28.3C435.5,10.4,410.4,0,383.7,0S331.9,10.4,313,29.3
			L147.3,195c-21,21-31.5,50.1-28.7,79.8c1.9,19.5-4.3,37.9-16.8,50.5l-76.5,76.5c-5.7,5.7-7.4,14.3-4.3,21.8
			C24,431.1,31.3,436,39.4,436L39.4,436z M130.1,353.6c21-21,31.3-51.1,28.4-82.6c-1.7-17.8,4.5-35.2,17.1-47.8L341.3,57.6
			C352.6,46.2,367.7,40,383.7,40s31.1,6.2,42.4,17.6l28.3,28.3c11.3,11.3,17.6,26.4,17.6,42.4s-6.2,31.1-17.6,42.4L288.7,336.4
			c-12.6,12.6-30,18.8-47.8,17.1c-31.5-3-61.5,7.3-82.6,28.4c-9.1,9.1-21.2,14.1-34.1,14.1H87.7L130.1,353.6z"/>
	</g>
</g>
</svg>
