<?xml version="1.0" encoding="utf-8"?>
<!-- Generator: Adobe Illustrator 25.4.1, SVG Export Plug-In . SVG Version: 6.00 Build 0)  -->
<svg version="1.1" id="Capa_1" xmlns="http://www.w3.org/2000/svg" xmlns:xlink="http://www.w3.org/1999/xlink" x="0px" y="0px"
	 viewBox="0 0 512 512" style="enable-background:new 0 0 512 512;" xml:space="preserve">
<style type="text/css">
	.st0{fill:#CEE1F2;}
	.st1{fill:#47237E;}
	.st2{fill:#43B7C5;}
</style>
<g>
	<path class="st0" d="M80,256c0-122.4,88.2-219.9,206-234.2c-9.8-1.2-19.8-1.8-30-1.8C123.5,20,20,123.5,20,256s103.5,236,236,236
		c10.2,0,20.2-0.6,30-1.8C168.2,475.9,80,378.4,80,256z"/>
	<path class="st1" d="M256,512C112.4,512,0,399.6,0,256S112.4,0,256,0c143.6,0,256,112.4,256,256S399.6,512,256,512z M256,40
		C134.9,40,40,134.9,40,256s94.9,216,216,216c121.1,0,216-94.9,216-216S377.1,40,256,40z"/>
	<path class="st2" d="M256,276c-55.1,0-100-44.9-100-100S200.9,76,256,76c55.1,0,100,44.9,100,100S311.1,276,256,276z M256,116
		c-33.1,0-60,26.9-60,60s26.9,60,60,60s60-26.9,60-60S289.1,116,256,116z"/>
	<path class="st1" d="M137.2,389.4c-10.2-4.2-15.2-15.8-11-26.1c10.4-25.5,27.9-47.3,50.7-62.9c23.3-16,50.7-24.5,79.1-24.5
		c28.4,0,55.8,8.5,79.1,24.5c22.8,15.6,40.3,37.4,50.6,62.9c4.2,10.2-0.8,21.9-11,26.1c-10.2,4.2-21.9-0.8-26.1-11
		C333.3,340.5,296.9,316,256,316s-77.3,24.5-92.7,62.4C159.1,388.7,147.5,393.6,137.2,389.4L137.2,389.4z"/>
</g>
</svg>
