<svg width="300" height="161" viewBox="0 0 300 161" fill="none" xmlns="http://www.w3.org/2000/svg">
<path d="M150.5 44C130.373 44 114 60.3733 114 80.5C114 100.627 130.373 117 150.5 117C170.627 117 187 100.627 187 80.5C187 60.3733 170.627 44 150.5 44ZM150.5 45.7125C169.702 45.7125 185.291 61.301 185.291 80.5C185.291 99.702 169.702 115.291 150.5 115.291C131.298 115.291 115.709 99.702 115.709 80.5C115.712 61.298 131.301 45.7094 150.5 45.7094V45.7125ZM150.5 49.2285C139.97 49.2015 130.138 54.4928 124.36 63.2963C125.096 63.3207 125.762 63.2963 126.358 63.2963C129.637 63.2963 134.723 62.9161 134.723 62.9161C136.408 62.8218 136.6 65.2795 134.911 65.4833C134.911 65.4833 133.19 65.7662 131.298 65.8605L142.704 99.702L149.548 79.1708L144.703 65.8605C143.014 65.7692 141.375 65.4833 141.375 65.4833C139.687 65.386 139.878 62.8188 141.567 62.9161C141.567 62.9161 146.759 63.2963 149.834 63.2963C153.113 63.2963 158.198 62.9161 158.198 62.9161C159.887 62.8218 160.075 65.2795 158.39 65.4833C158.39 65.4833 156.656 65.7662 154.777 65.8605L166.089 99.5104L169.225 89.0532C170.806 84.9925 171.603 81.5707 171.603 78.8849C171.603 75.0098 170.234 72.4061 169.036 70.3287C167.454 67.7524 165.994 65.4924 165.994 62.9161C165.994 60.0387 168.145 57.4016 171.22 57.4016H171.6C165.846 52.1197 158.311 49.2023 150.5 49.2317V49.2285ZM177.969 65.4802C178.112 66.481 178.161 67.5608 178.161 68.7135C178.161 71.886 177.565 75.463 175.782 79.9312L166.277 107.589C175.903 101.968 181.808 91.6468 181.775 80.5C181.775 75.0554 180.421 69.9363 177.972 65.4802H177.969ZM121.89 67.7615C120.116 71.7729 119.209 76.1138 119.229 80.5C119.229 92.8918 126.367 103.562 136.813 108.635L121.89 67.7615ZM151.069 83.2558L141.661 110.536C144.465 111.358 147.422 111.771 150.5 111.771C154.15 111.771 157.605 111.203 160.86 110.062C160.778 109.931 160.729 109.74 160.671 109.584L151.069 83.2558Z" fill="#47237E"/>
</svg>
