<svg width="300" height="161" viewBox="0 0 300 161" fill="none" xmlns="http://www.w3.org/2000/svg">
<path d="M106.512 96.6563L118.93 72.7766L119.698 96.6563H126.791L143.279 64H136.488L125.256 86.6099L124.465 64H116.86L105.163 86.8549L104.86 64H98L99.2791 96.6563H106.512ZM146.326 96.6563L149.047 84.2041L153.754 84.204C156.658 84.2004 158.647 84.1262 159.721 83.9813C161.612 83.7289 163.116 83.3613 164.233 82.8787C165.349 82.3961 166.391 81.6869 167.36 80.7514C168.329 79.8158 169.147 78.5683 169.814 77.009C170.481 75.4497 170.814 73.8459 170.814 72.1975C170.814 70.4154 170.395 68.8821 169.558 67.5975C168.721 66.313 167.585 65.3922 166.151 64.8353C164.717 64.2784 162.767 64 160.302 64H146.442L139.302 96.6563H146.326ZM152.597 78.7908L150.209 78.7911L152.279 69.3685H157.302C159.581 69.3685 161.05 69.4835 161.709 69.7137C162.368 69.9439 162.88 70.3115 163.244 70.8164C163.609 71.3213 163.791 71.9673 163.791 72.7544C163.791 73.9276 163.434 75.0042 162.721 75.9844C162.008 76.9645 161.031 77.6773 159.791 78.1228C158.55 78.5683 156.078 78.7911 152.372 78.7911L152.597 78.7908ZM178.023 96.6563L181.047 82.7562H197.558L198.744 77.2986H182.233L183.953 69.4576H200.791L202 64H178.14L171 96.6563H178.023Z" fill="#47237E"/>
</svg>
