<svg width="300" height="161" viewBox="0 0 300 161" fill="none" xmlns="http://www.w3.org/2000/svg">
<path d="M135.063 49C133.092 49.0041 131.162 50.1068 130.169 51.7891L114.733 78.2109C113.756 79.8977 113.756 82.1023 114.733 83.7891L130.169 110.211C131.162 111.893 133.092 112.996 135.063 113H165.937C167.908 112.996 169.838 111.893 170.831 110.211L186.267 83.7891C187.244 82.1023 187.244 79.8977 186.267 78.2109L170.831 51.7891C169.838 50.1068 167.908 49.0038 165.937 49H135.063ZM135.344 64.4571C135.386 64.453 135.431 64.453 135.473 64.4571H140.798C141.034 64.4619 141.263 64.5961 141.38 64.7977L150.414 80.6594C150.459 80.7378 150.489 80.8251 150.5 80.9148C150.511 80.8251 150.54 80.7377 150.586 80.6594L159.597 64.7977C159.719 64.59 159.958 64.455 160.201 64.4571H165.526C165.998 64.4612 166.351 65.0464 166.13 65.4578L157.312 81L166.13 96.521C166.372 96.9347 166.01 97.547 165.526 97.5429H160.201C159.954 97.5409 159.713 97.3965 159.597 97.181L150.586 81.3194C150.54 81.2409 150.511 81.1536 150.5 81.0639C150.489 81.1536 150.459 81.241 150.414 81.3194L141.38 97.181C141.268 97.3905 141.038 97.5334 140.798 97.5429H135.473C134.989 97.547 134.628 96.9347 134.869 96.521L143.687 81L134.869 65.4578C134.658 65.0825 134.916 64.5372 135.344 64.4571Z" fill="#47237E"/>
</svg>
